<?xml version="1.0" encoding="utf-8"?>
<!-- Generator: Adobe Illustrator 24.3.0, SVG Export Plug-In . SVG Version: 6.00 Build 0)  -->
<svg version="1.0" id="Layer_1" xmlns="http://www.w3.org/2000/svg" xmlns:xlink="http://www.w3.org/1999/xlink" x="0px" y="0px"
	 viewBox="0 0 311.24 311.81" enable-background="new 0 0 311.24 311.81" xml:space="preserve">
<g>
	<path fill="#FFFFFF" d="M-126,295.81c0-78.33,0-156.67,0-235c168.67,0,337.33,0,506,0c0,78.33,0,156.67,0,235
		C211.33,295.81,42.67,295.81-126,295.81z M52.76,234.32c50.26,0,99.49,0,149.49,0c0.78-6.06,2.08-12.29,2.27-18.54
		c0.41-13.41,0.1-26.82,0.55-40.23c0.05-1.48,3.1-2.9,4.76-4.35c1.36,1.49,3.75,2.94,3.89,4.49c0.49,5.34,0.19,10.71,0.19,16.2
		c9.25,0,17.8,0,27.1,0c-1.22-5.02-2.36-9.56-3.44-14.11c-2.8-11.76-9.11-16.16-25.26-17.92c-1.66-0.18-3.1-1.42-3.72-1.71
		c-2.41,0.76-4.63,1.87-7.04,2.16c-10.82,1.3-17.35,6.1-19.28,13.51c-2.11,8.13-2.97,16.44-4.01,24.69
		c-0.48,3.81-0.08,7.67-0.08,12.02c-9.23-1.14-2.99,5.09-6.77,6.9c-0.31-0.27-0.7-0.45-0.75-0.67c-3.54-17.67-7.03-35.34-10.6-53.01
		c-0.2-0.99-0.93-2.71-1.55-2.74c-4.63-0.24-3.81-2.87-4.04-4.76c-0.53-4.27-0.59-8.56-0.97-12.84c-0.12-1.31-0.64-2.6-0.98-3.9
		c-0.63,0.04-1.26,0.08-1.89,0.12c0.81,6.9,1.61,13.79,2.47,21.15c-11.21,0-21.34,0-31.77,0c-3.37,18.27-6.67,36.17-10.28,55.77
		c-2.87-5.85-4.56-1.01-7.15-1.14c-0.46-7.77,2.16-16.48-12.74-19.64c10.29-0.94,12.17-6.11,12.42-11.72
		c0.18-4.12-0.12-8.37-1.32-12.38c-1.6-5.32-6.22-9.66-14.06-9.95c-14.14-0.52-28.34-0.15-42.93-0.15
		c-0.94,17.17-1.9,34.79-2.88,52.73c-2.03,0-3.97,0-6.01,0c-3.69-17.95-7.31-35.58-11.01-53.61c-8.97,0-17.59,0-27.94,0
		c1.71-2.43,2.82-4.01,3.75-5.33c-1.5-0.54-3.8-1.37-5.72-2.06c0.48,2.38,0.96,4.7,1.47,7.19c-3.78,0.14-6.49,0.24-9.31,0.35
		c-0.38,1.08-0.81,1.95-0.98,2.85c-3.47,18.93-6.87,37.87-10.46,56.79c-0.25,1.3-1.91,2.45-2.91,3.68
		c-0.71-0.25-1.41-0.49-2.12-0.74c0-3.18,0-6.36,0-9.62c-2.47-0.25-4.43-0.44-6.54-0.65c2.67-10.89,5.15-21.49,8.02-32.03
		c0.3-1.1,2.88-1.88,4.41-2.79c0.4-0.24,0.84-0.42,1.94-0.97c-2.16-0.1-3.54-0.16-5.15-0.23c0-1.52,0-2.84,0-4.17
		c-0.76,3.56-4.05,3.56-6.96,2.97c1.19,1.67,3.56,3.38,3.26,4.81c-1.95,9.41-4.47,18.75-7.13,29.38c-1.66-3.97-2.53-6.81-4.04-9.47
		c-2.64-4.65-2.28-8.96,0.22-13.71c4.44-8.45,7.89-17.17,11.87-26.02c-1.42-0.1-2.42-0.25-3.42-0.23
		c-6.98,0.12-15.35-1.37-20.53,0.92c-4.54,2-5.53,8.25-8.04,12.64c-3.01,5.27-5.98,10.55-8.96,15.82c-1.3-2.05-1.22-3.85-1.32-5.64
		c-0.18-3.01,1.08-6.92-1.04-8.85c-4.86-4.41-5.63-9.52-7.22-14.5c-1.42-4.42-1.81-9.01-2.79-14.26c-2.77,9.86-5.3,18.84-7.82,27.82
		c-0.67-0.04-1.34-0.09-2.01-0.13c-0.39-0.49-0.78-0.98-1.71-2.14c-1.38,13.06-2.7,25.54-4.07,38.48c5.63-0.41,9.99-0.74,14.34-1.06
		c-2.31,1.27-4.77,1.83-7.21,1.8c-5.27-0.08-6.95,1.55-6.66,5.31c0.43,5.51,0.11,11.04,0.11,16.59c-2.06,0.29-3.55,0.49-6.71,0.93
		c4.88,0,7.98,0,10.85,0c0.37-4.62,0.72-8.95,1.07-13.28c0.98,0.01,1.97,0.02,2.95,0.03c0.47,4.44,0.94,8.89,1.46,13.7
		c4.38-0.23,8.48-0.44,13.38-0.7c0-4.63,0-8.63,0-12.63c0.62-0.02,1.23-0.03,1.85-0.05c0.52,3.99,1.04,7.99,1.58,12.13
		c1.91,0,3.64,0,6.17,0c0-9.45,0-18.59,0-27.73c0.24,0.01,0.49,0.03,0.73,0.04c3.15,9.24,6.29,18.48,9.41,27.64
		c13.72,0,26.99,0,39.95,0c2.26-4.5-2.08-9.66,4.25-13.37c7.64,3.5,2.01,9.37,4.91,13.51c8.84,0,17.49,0,25.98,0
		c2.65-4.37-2.28-9.89,4.84-13.51c6.9,3.68,1.61,9.18,4.47,13.52c6.94,0,14.05,0,21.77,0c0-2.96,0-5.66,0-8.35
		c0.38,0,0.76-0.01,1.14-0.01C52.76,228.19,52.76,231.01,52.76,234.32z M213.25,204.42c1.12,10.4,2.2,20.36,3.2,29.64
		c14.43,0,27.72,0,40.56,0c3.11-6.17-3.49-13.47,6.72-17.94c1.43,1.27,3.42,2.23,3.66,3.39c0.97,4.64,1.4,9.33,2.05,14.12
		c22.21,0,44.42,0,66.68,0c0-25.38,0-50.44,0-75.49c-0.29-0.01-0.58-0.03-0.87-0.04c-3.78,19.28-7.55,38.56-11.4,58.18
		c-1.64,0-3.85,0-6.28,0c0-9.8,0-19.34,0-28.87c-1.59,1.33-1.9,2.69-1.9,4.05c-0.01,8.45,0.22,16.91-0.04,25.35
		c-0.05,1.75-1.84,3.47-2.82,5.2c-0.91-0.19-1.83-0.37-2.74-0.56c0-20.96,0-41.91,0-63.77c-1.52,1.35-2,1.78-1.97,1.75
		c-3.6-3.45-7.19-6.89-10.77-10.32c-4.13,3.69-8.18,7.31-13.55,12.1c0,7.32,0,16.35,0,25.33c-2.64,0-4.71,0-7.4,0
		c0-8.58,0-16.99,0-25.55c-9.18,0-17.72,0-26.8,0c0,22.33,0,44.31,0,66.56c-2.4-0.11-4.25-0.2-7.89-0.37
		c-0.67-7.64-1.32-15.1-1.99-22.76C231.44,204.42,223.19,204.42,213.25,204.42z M324.14,197.78c0.53-0.04,1.05-0.08,1.58-0.12
		c2.82-14.37,5.65-28.74,8.47-43.1c-0.62-0.21-1.24-0.43-1.87-0.64c-1.61,1.93-4.4,3.78-4.63,5.79
		C326.19,172.38,325.26,185.09,324.14,197.78z M203.72,235.32c4.14,0,7.42,0,11.46,0c-0.44-2.72-0.82-5.08-1.21-7.43
		c-0.33,0.01-0.66,0.03-0.99,0.04c-0.3,0.93-0.6,1.85-1.04,3.19c-0.86-1.62-1.49-2.8-2.54-4.79c-0.54,2.31-0.86,3.68-1.34,5.72
		c-0.82-1.99-1.35-3.26-1.87-4.53c-0.29,0.06-0.58,0.12-0.87,0.18C204.81,230.07,204.32,232.44,203.72,235.32z"/>
	<path d="M52.76,234.32c0-3.31,0-6.13,0-8.96c-0.38,0-0.76,0.01-1.14,0.01c0,2.7,0,5.39,0,8.35c-7.71,0-14.83,0-21.77,0
		c-2.86-4.34,2.43-9.84-4.47-13.52c-7.12,3.62-2.19,9.15-4.84,13.51c-8.49,0-17.14,0-25.98,0c-2.9-4.15,2.73-10.02-4.91-13.51
		c-6.33,3.71-2,8.87-4.25,13.37c-12.96,0-26.23,0-39.95,0c-3.12-9.16-6.27-18.4-9.41-27.64c-0.24-0.01-0.49-0.03-0.73-0.04
		c0,9.14,0,18.28,0,27.73c-2.52,0-4.26,0-6.17,0c-0.54-4.14-1.06-8.14-1.58-12.13c-0.62,0.02-1.23,0.03-1.85,0.05c0,4,0,8,0,12.63
		c-4.9,0.26-9,0.47-13.38,0.7c-0.51-4.81-0.98-9.26-1.46-13.7c-0.98-0.01-1.97-0.02-2.95-0.03c-0.35,4.33-0.7,8.66-1.07,13.28
		c-2.87,0-5.98,0-10.85,0c3.16-0.44,4.65-0.65,6.71-0.93c0-5.55,0.32-11.08-0.11-16.59c-0.29-3.76,1.38-5.4,6.66-5.31
		c2.44,0.04,4.9-0.52,7.21-1.8c-4.35,0.32-8.71,0.64-14.34,1.06c1.37-12.94,2.69-25.42,4.07-38.48c0.93,1.16,1.32,1.65,1.71,2.14
		c0.67,0.04,1.34,0.09,2.01,0.13c2.53-8.98,5.05-17.96,7.82-27.82c0.98,5.25,1.37,9.84,2.79,14.26c1.6,4.98,2.36,10.09,7.22,14.5
		c2.12,1.93,0.86,5.84,1.04,8.85c0.11,1.79,0.02,3.59,1.32,5.64c2.99-5.28,5.95-10.56,8.96-15.82c2.51-4.39,3.5-10.63,8.04-12.64
		c5.18-2.29,13.55-0.79,20.53-0.92c1-0.02,2.01,0.13,3.42,0.23c-3.98,8.86-7.43,17.58-11.87,26.02c-2.5,4.76-2.86,9.06-0.22,13.71
		c1.51,2.65,2.37,5.5,4.04,9.47c2.65-10.63,5.18-19.98,7.13-29.38c0.3-1.43-2.07-3.15-3.26-4.81c2.91,0.59,6.2,0.59,6.96-2.97
		c0,1.33,0,2.65,0,4.17c1.61,0.07,2.99,0.13,5.15,0.23c-1.1,0.54-1.55,0.73-1.94,0.97c-1.54,0.92-4.11,1.69-4.41,2.79
		c-2.87,10.55-5.35,21.15-8.02,32.03c2.11,0.21,4.07,0.41,6.54,0.65c0,3.26,0,6.44,0,9.62c0.71,0.25,1.41,0.49,2.12,0.74
		c1-1.22,2.66-2.38,2.91-3.68c3.59-18.92,6.99-37.86,10.46-56.79c0.16-0.9,0.6-1.77,0.98-2.85c2.82-0.1,5.53-0.21,9.31-0.35
		c-0.51-2.49-0.98-4.81-1.47-7.19c1.91,0.69,4.22,1.52,5.72,2.06c-0.93,1.32-2.04,2.9-3.75,5.33c10.35,0,18.97,0,27.94,0
		c3.7,18.02,7.32,35.66,11.01,53.61c2.04,0,3.98,0,6.01,0c0.98-17.94,1.94-35.56,2.88-52.73c14.6,0,28.8-0.37,42.93,0.15
		c7.84,0.29,12.47,4.64,14.06,9.95c1.21,4.01,1.5,8.26,1.32,12.38c-0.24,5.61-2.12,10.78-12.42,11.72
		c14.9,3.16,12.28,11.87,12.74,19.64c2.59,0.13,4.27-4.71,7.15,1.14c3.61-19.59,6.91-37.5,10.28-55.77c10.43,0,20.56,0,31.77,0
		c-0.86-7.36-1.66-14.25-2.47-21.15c0.63-0.04,1.26-0.08,1.89-0.12c0.34,1.3,0.87,2.59,0.98,3.9c0.38,4.28,0.43,8.57,0.97,12.84
		c0.24,1.89-0.59,4.52,4.04,4.76c0.62,0.03,1.35,1.75,1.55,2.74c3.57,17.67,7.06,35.34,10.6,53.01c0.04,0.22,0.44,0.4,0.75,0.67
		c3.78-1.8-2.46-8.04,6.77-6.9c0-4.35-0.4-8.21,0.08-12.02c1.04-8.25,1.9-16.56,4.01-24.69c1.92-7.41,8.46-12.21,19.28-13.51
		c2.41-0.29,4.63-1.4,7.04-2.16c0.62,0.3,2.06,1.53,3.72,1.71c16.16,1.76,22.46,6.16,25.26,17.92c1.08,4.55,2.22,9.09,3.44,14.11
		c-9.3,0-17.85,0-27.1,0c0-5.49,0.3-10.86-0.19-16.2c-0.14-1.55-2.53-3-3.89-4.49c-1.66,1.45-4.71,2.87-4.76,4.35
		c-0.45,13.41-0.13,26.82-0.55,40.23c-0.19,6.25-1.49,12.48-2.27,18.54C152.25,234.32,103.02,234.32,52.76,234.32z M71.63,222.96
		c3.17-0.14,5.19-0.24,7.22-0.33c0-6.11,0.14-11.89-0.06-17.66c-0.11-3.33-2.92-4.33-7.16-3.74
		C71.63,208.42,71.63,215.37,71.63,222.96z M141.92,180.56c-0.47-0.04-0.94-0.09-1.41-0.13c-1.36,9-2.72,18.01-4.09,27.05
		c3.41,0,5.82,0,8.69,0C144.02,198.28,142.97,189.42,141.92,180.56z M11.18,207.68c-1.19-9.41-2.32-18.34-3.45-27.27
		c-0.4-0.02-0.8-0.04-1.19-0.06c-1.42,9.02-2.84,18.04-4.3,27.33C5.56,207.68,8.01,207.68,11.18,207.68z M71.36,173.23
		c0,5.52,0,10.67,0,15.85c5.73,1.02,7.46-1.19,7.94-4.58C80.46,176.3,79.06,174.08,71.36,173.23z M132.23,166.54
		c-0.02,0.68-0.04,1.36-0.06,2.04c2.31,1.13,4.82,3.32,6.87,3.11c2.21-0.22,5.12-2.55,5.54-4.24c0.27-1.1-3.28-3.7-5.31-3.81
		C137.03,163.52,134.58,165.48,132.23,166.54z M136.74,221.01c-0.32,2.66-0.62,5.18-0.92,7.7c0.49,0.24,0.97,0.48,1.45,0.71
		c2.64-1.73,5.28-3.47,8.9-5.85c-0.01-0.14-0.11-1.3-0.22-2.57C142.83,221.01,140.13,221.01,136.74,221.01z M2.24,223.84
		c3.61,1.61,6.5,2.9,10.72,4.78c-0.42-3.12-0.71-5.27-1.02-7.53c-3.19,0-6.01,0-9.02,0C2.58,222.47,2.29,223.63,2.24,223.84z
		 M146.23,218.29c0.39,0.28,0.77,0.57,1.16,0.85c0.76-0.87,2.14-1.74,2.16-2.62c0.03-2.32-0.53-4.65-0.86-6.98
		c-0.82,0.09-1.64,0.18-2.46,0.26C146.23,212.64,146.23,215.47,146.23,218.29z M3.94,210.07c-0.65,0.02-1.3,0.05-1.95,0.07
		c0,2.49,0,4.99,0,7.48c0.65,0.02,1.3,0.03,1.95,0.05C3.94,215.13,3.94,212.6,3.94,210.07z M-12.79,217.49
		c0.59,0.05,1.19,0.1,1.78,0.15c0-2.52,0-5.05,0-7.57c-0.59-0.02-1.19-0.04-1.78-0.06C-12.79,212.5-12.79,215-12.79,217.49z
		 M-2.32,210.32c-0.95-0.1-1.9-0.2-2.85-0.3c0,2.51,0,5.02,0,7.53c0.69,0.04,1.38,0.08,2.08,0.12
		C-2.84,215.22-2.58,212.77-2.32,210.32z M19.41,210.18c-4.3,3.25-4.01,5.81,0,7.47C19.41,215.06,19.41,212.62,19.41,210.18z
		 M26.87,209.6c-4.33,3.12-4.17,6.3,0,8.13C26.87,215.08,26.87,212.6,26.87,209.6z M136.01,219.91c0.55,0.02,1.1,0.04,1.65,0.06
		c0-3.38,0-6.77,0-10.15c-0.55,0-1.1,0-1.65,0C136.01,213.18,136.01,216.54,136.01,219.91z"/>
	<path d="M213.25,204.42c9.95,0,18.2,0,26.45,0c0.67,7.66,1.33,15.12,1.99,22.76c3.65,0.17,5.49,0.26,7.89,0.37
		c0-22.24,0-44.23,0-66.56c9.07,0,17.62,0,26.8,0c0,8.56,0,16.96,0,25.55c2.69,0,4.76,0,7.4,0c0-8.98,0-18.01,0-25.33
		c5.37-4.8,9.42-8.42,13.55-12.1c3.57,3.43,7.16,6.86,10.77,10.32c-0.03,0.03,0.45-0.4,1.97-1.75c0,21.86,0,42.82,0,63.77
		c0.91,0.19,1.83,0.37,2.74,0.56c0.99-1.73,2.77-3.45,2.82-5.2c0.26-8.45,0.03-16.9,0.04-25.35c0-1.36,0.31-2.72,1.9-4.05
		c0,9.54,0,19.07,0,28.87c2.43,0,4.64,0,6.28,0c3.85-19.63,7.62-38.91,11.4-58.18c0.29,0.01,0.58,0.03,0.87,0.04
		c0,25.05,0,50.11,0,75.49c-22.27,0-44.48,0-66.68,0c-0.65-4.79-1.08-9.49-2.05-14.12c-0.24-1.16-2.23-2.12-3.66-3.39
		c-10.21,4.47-3.61,11.77-6.72,17.94c-12.85,0-26.13,0-40.56,0C215.45,224.78,214.37,214.82,213.25,204.42z M280.68,225.2
		c3.74-1.72,4.92-13.23,2.73-21.68c-2.22,0-4.44,0-8.2,0C277.1,211.01,278.87,218.01,280.68,225.2z M291.18,185.51
		c0.37-0.01,0.74-0.02,1.12-0.02c0-6.91,0-13.82,0-20.72c-0.37,0.01-0.74,0.02-1.12,0.03C291.18,171.7,291.18,178.6,291.18,185.51z
		 M296.06,164.84c-0.37,0-0.73,0-1.1,0c0,6.86,0,13.72,0,20.57c0.37,0,0.73,0,1.1,0C296.06,178.56,296.06,171.7,296.06,164.84z"/>
	<path d="M324.14,197.78c1.12-12.7,2.05-25.4,3.55-38.08c0.24-2.01,3.02-3.86,4.63-5.79c0.62,0.21,1.24,0.43,1.87,0.64
		c-2.82,14.37-5.65,28.74-8.47,43.1C325.19,197.71,324.66,197.74,324.14,197.78z"/>
	<path d="M203.72,235.32c0.6-2.88,1.1-5.24,1.59-7.61c0.29-0.06,0.58-0.12,0.87-0.18c0.53,1.27,1.05,2.54,1.87,4.53
		c0.48-2.03,0.8-3.4,1.34-5.72c1.05,1.98,1.69,3.17,2.54,4.79c0.44-1.34,0.74-2.27,1.04-3.19c0.33-0.01,0.66-0.03,0.99-0.04
		c0.38,2.36,0.77,4.72,1.21,7.43C211.14,235.32,207.86,235.32,203.72,235.32z"/>
	<path fill="#FFFFFF" d="M71.63,222.96c0-7.59,0-14.54,0-21.72c4.24-0.59,7.05,0.41,7.16,3.74c0.2,5.77,0.06,11.55,0.06,17.66
		C76.82,222.73,74.8,222.82,71.63,222.96z"/>
	<path fill="#FFFFFF" d="M141.92,180.56c1.05,8.86,2.1,17.73,3.19,26.92c-2.87,0-5.28,0-8.69,0c1.37-9.05,2.73-18.05,4.09-27.05
		C140.98,180.47,141.45,180.51,141.92,180.56z"/>
	<path fill="#FFFFFF" d="M11.18,207.68c-3.17,0-5.62,0-8.94,0c1.46-9.29,2.88-18.31,4.3-27.33c0.4,0.02,0.8,0.04,1.19,0.06
		C8.86,189.34,9.99,198.27,11.18,207.68z"/>
	<path fill="#FFFFFF" d="M71.36,173.23c7.7,0.85,9.11,3.07,7.94,11.27c-0.48,3.39-2.22,5.59-7.94,4.58
		C71.36,183.9,71.36,178.75,71.36,173.23z"/>
	<path fill="#FFFFFF" d="M132.23,166.54c2.35-1.05,4.8-3.01,7.04-2.89c2.02,0.11,5.58,2.71,5.31,3.81
		c-0.41,1.69-3.33,4.01-5.54,4.24c-2.05,0.21-4.56-1.98-6.87-3.11C132.19,167.89,132.21,167.21,132.23,166.54z"/>
	<path fill="#FFFFFF" d="M136.74,221.01c3.38,0,6.09,0,9.21,0c0.11,1.27,0.21,2.42,0.22,2.57c-3.62,2.38-6.26,4.11-8.9,5.85
		c-0.49-0.24-0.97-0.48-1.45-0.71C136.13,226.19,136.43,223.67,136.74,221.01z"/>
	<path fill="#FFFFFF" d="M2.24,223.84c0.05-0.21,0.34-1.37,0.69-2.75c3,0,5.83,0,9.02,0c0.31,2.27,0.6,4.41,1.02,7.53
		C8.74,226.73,5.84,225.44,2.24,223.84z"/>
	<path fill="#FFFFFF" d="M146.23,218.29c0-2.83,0-5.65,0-8.48c0.82-0.09,1.64-0.18,2.46-0.26c0.33,2.33,0.89,4.65,0.86,6.98
		c-0.01,0.88-1.4,1.75-2.16,2.62C147,218.86,146.61,218.58,146.23,218.29z"/>
	<path fill="#FFFFFF" d="M3.94,210.07c0,2.53,0,5.07,0,7.6c-0.65-0.02-1.3-0.03-1.95-0.05c0-2.49,0-4.99,0-7.48
		C2.64,210.11,3.29,210.09,3.94,210.07z"/>
	<path fill="#FFFFFF" d="M-12.79,217.49c0-2.5,0-4.99,0-7.49c0.59,0.02,1.19,0.04,1.78,0.06c0,2.52,0,5.05,0,7.57
		C-11.6,217.59-12.19,217.54-12.79,217.49z"/>
	<path fill="#FFFFFF" d="M-2.32,210.32c-0.26,2.45-0.52,4.9-0.78,7.35c-0.69-0.04-1.38-0.08-2.08-0.12c0-2.51,0-5.02,0-7.53
		C-4.23,210.12-3.27,210.22-2.32,210.32z"/>
	<path fill="#FFFFFF" d="M19.41,210.18c0,2.44,0,4.88,0,7.47C15.4,216,15.11,213.43,19.41,210.18z"/>
	<path fill="#FFFFFF" d="M26.87,209.6c0,3,0,5.48,0,8.13C22.7,215.9,22.54,212.72,26.87,209.6z"/>
	<path fill="#FFFFFF" d="M136.01,219.91c0-3.36,0-6.73,0-10.09c0.55,0,1.1,0,1.65,0c0,3.38,0,6.77,0,10.15
		C137.11,219.95,136.56,219.93,136.01,219.91z"/>
	<path fill="#FFFFFF" d="M280.68,225.2c-1.81-7.19-3.58-14.19-5.46-21.68c3.76,0,5.97,0,8.2,0
		C285.6,211.97,284.42,223.48,280.68,225.2z"/>
	<path fill="#FFFFFF" d="M291.18,185.51c0-6.9,0-13.81,0-20.71c0.37-0.01,0.74-0.02,1.12-0.03c0,6.91,0,13.82,0,20.72
		C291.92,185.49,291.55,185.5,291.18,185.51z"/>
	<ellipse fill="#FFFFFF" cx="295.51" cy="175.13" rx="0.78" ry="14.55"/>
</g>
</svg>
