<svg width="1440" height="557" viewBox="0 0 1440 557" fill="none" xmlns="http://www.w3.org/2000/svg">
<g opacity="0.19">
<path d="M1440 0H0V557H1440V0Z" fill="white"/>
<path d="M1440 451.82C1348.64 430.468 1257.28 409.024 1161.44 390.271C1065.6 371.519 965.28 355.459 889.28 319.532C813.28 283.606 761.44 227.813 727.52 171.277C693.6 114.649 677.44 57.371 661.28 0H1440V451.82Z" fill="#EBF1F8"/>
<path d="M1440 361.493C1366.88 344.319 1293.76 327.145 1217.12 312.198C1140.48 297.159 1060.32 284.348 999.52 255.57C938.56 226.885 897.12 182.232 870.08 137.022C842.88 91.7193 829.92 45.8597 816.96 0H1440V361.493Z" fill="#C4D5EB"/>
<path d="M1440 271.073C1385.12 258.262 1330.4 245.359 1272.8 234.126C1215.36 222.893 1155.2 213.238 1109.6 191.701C1064 170.163 1032.96 136.651 1012.48 102.766C992.16 68.7895 982.4 34.4412 972.8 0H1440V271.073Z" fill="#9CB9DD"/>
<path d="M1440 180.746C1403.52 172.206 1366.88 163.572 1328.64 156.053C1290.24 148.626 1250.08 142.221 1219.68 127.831C1189.28 113.442 1168.64 91.1623 1155.04 68.511C1141.44 45.8597 1134.88 22.9298 1128.48 0H1440V180.746Z" fill="#709FD0"/>
<path d="M1440 90.3268C1421.76 86.0565 1403.52 81.7862 1384.32 78.0728C1365.12 74.2667 1345.12 71.1103 1329.92 63.8693C1314.72 56.7212 1304.32 45.5812 1297.44 34.2555C1290.72 22.9298 1287.52 11.5113 1284.32 0H1440V90.3268Z" fill="#5892C9"/>
<path d="M0 105.18C91.84 136.279 183.84 167.471 256 198.478C328 229.484 380.48 260.305 463.84 287.876C547.36 315.448 661.92 339.77 719.52 384.052C777.12 428.426 777.92 492.667 778.72 557H0V105.18Z" fill="#EBF1F8"/>
<path d="M0 195.507C73.6 220.479 147.04 245.359 204.8 270.238C262.4 295.024 304.32 319.625 371.04 341.72C437.92 363.721 529.44 383.216 575.68 418.678C621.76 454.141 622.4 505.57 623.04 557H0V195.507Z" fill="#C4D5EB"/>
<path d="M0 285.927C55.2 304.586 110.24 323.339 153.6 341.905C196.8 360.472 228.32 378.946 278.24 395.563C328.32 412.087 397.12 426.662 431.68 453.212C466.24 479.856 466.72 518.381 467.2 557H0V285.927Z" fill="#9CB9DD"/>
<path d="M0 376.253C36.8 388.693 73.6 401.226 102.4 413.572C131.2 426.012 152.16 438.359 185.6 449.313C218.88 460.36 264.8 470.108 287.84 487.839C310.88 505.57 311.2 531.285 311.52 557H0V376.253Z" fill="#709FD0"/>
<path d="M0 466.673C18.4 472.893 36.8 479.113 51.2 485.333C65.6 491.46 76.16 497.68 92.8 503.157C109.44 508.727 132.32 513.554 143.84 522.373C155.36 531.285 155.52 544.096 155.68 557H0V466.673Z" fill="#5892C9"/>
</g>
</svg>
