<svg width="435" height="394" viewBox="0 0 435 394" fill="none" xmlns="http://www.w3.org/2000/svg">
<path d="M29.97 223.208V48.7578H44.81" stroke="#263238" stroke-width="0.25" stroke-linecap="round" stroke-linejoin="round"/>
<path d="M29.98 251.728V245.368" stroke="#263238" stroke-width="0.25" stroke-linecap="round" stroke-linejoin="round"/>
<path d="M82.96 48.7578H236.02V274.058H29.97" stroke="#263238" stroke-width="0.25" stroke-linecap="round" stroke-linejoin="round"/>
<path d="M64.1899 48.7578H77.6399" stroke="#263238" stroke-width="0.25" stroke-linecap="round" stroke-linejoin="round"/>
<path d="M228.27 56.4978H37.72V266.328H228.27V56.4978Z" stroke="#263238" stroke-width="0.25" stroke-linecap="round" stroke-linejoin="round"/>
<path d="M219.41 71.2178V152.828H46.58V145.388" stroke="#263238" stroke-width="0.25" stroke-linecap="round" stroke-linejoin="round"/>
<path d="M46.58 127.928V64.5978H219.41" stroke="#263238" stroke-width="0.25" stroke-linecap="round" stroke-linejoin="round"/>
<path d="M46.59 139.658V132.418" stroke="#263238" stroke-width="0.25" stroke-linecap="round" stroke-linejoin="round"/>
<path d="M190.23 161.408H228.27" stroke="#263238" stroke-width="0.25" stroke-linecap="round" stroke-linejoin="round"/>
<path d="M176.7 161.408H182.08" stroke="#263238" stroke-width="0.25" stroke-linecap="round" stroke-linejoin="round"/>
<path d="M37.72 161.408H170.27" stroke="#263238" stroke-width="0.25" stroke-linecap="round" stroke-linejoin="round"/>
<path d="M123.42 152.828V148.908H139.35V151.138H133V152.828" stroke="#263238" stroke-width="0.25" stroke-linecap="round" stroke-linejoin="round"/>
<path d="M38.05 231.738C38.05 231.738 40.69 233.738 42.55 245.838C42.55 245.838 45.75 226.508 49.63 226.208C53.51 225.908 52.69 238.788 52.69 238.788C52.69 238.788 53.33 232.438 56.37 232.728C59.41 233.018 56.37 245.838 56.37 245.838C56.37 245.838 60.02 235.838 63.47 236.018C66.92 236.198 61.18 254.128 61.18 254.128C61.18 254.128 70.04 247.708 73.63 250.848C77.22 253.988 71.63 261.908 71.63 261.908C71.63 261.908 84.34 259.148 86.31 266.598" stroke="#263238" stroke-width="0.25" stroke-linecap="round" stroke-linejoin="round"/>
<path d="M86.34 259.378C86.34 259.378 91.88 255.748 96.23 257.438C96.23 257.438 93.46 253.218 96.23 250.638C99 248.058 102.56 257.438 102.56 257.438C102.56 257.438 102.96 241.728 108.5 242.518C114.04 243.308 108.5 257.438 108.5 257.438C108.5 257.438 118.39 248.678 120.76 251.728C123.13 254.778 119.18 259.378 119.18 259.378C119.18 259.378 125.11 257.478 129.46 261.908C129.46 261.908 136.09 255.138 143.46 254.168C143.46 254.168 138.56 239.948 140.94 237.078C143.32 234.208 147.62 249.488 147.62 249.488C147.62 249.488 149.51 239.548 155.7 238.788C155.7 238.788 150.54 235.978 152.07 231.738C153.6 227.498 160.72 232.738 160.72 232.738C160.72 232.738 157.79 225.268 162.42 223.218C167.05 221.168 168.98 229.468 168.98 229.468C168.98 229.468 170.27 220.768 175.71 221.248C181.15 221.728 179.39 231.748 179.39 231.748C179.39 231.748 184.52 223.748 187.27 224.598C192.76 226.218 191.09 238.798 191.09 238.798C191.09 238.798 198.76 233.468 200.73 235.918C202.86 238.568 192.73 245.378 192.73 245.378C192.73 245.378 200.34 246.218 205.07 250.648" stroke="#263238" stroke-width="0.25" stroke-linecap="round" stroke-linejoin="round"/>
<path d="M228.27 234.608C228.27 234.608 227.4 226.608 219.41 226.208C211.42 225.808 221.61 243.708 221.61 243.708C221.61 243.708 215.02 238.258 212.66 239.938C210.3 241.618 219.41 250.848 219.41 250.848C219.41 250.848 215.04 246.848 210.41 248.058C205.78 249.268 213.04 262.158 213.04 262.158C206.196 260.776 199.091 261.606 192.75 264.528" stroke="#263238" stroke-width="0.25" stroke-linecap="round" stroke-linejoin="round"/>
<path d="M307.75 341.908V242.228H419.99" stroke="#263238" stroke-width="0.25" stroke-linecap="round" stroke-linejoin="round"/>
<path d="M415.91 252.538H316.78V345.388" stroke="#263238" stroke-width="0.25" stroke-linecap="round" stroke-linejoin="round"/>
<path d="M336.62 303.178V261.908H343.11V270.418H351.77V266.598H359.51V271.228H369.96V261.908H380.65V268.168H386.41V264.528H396.73V288.838" stroke="#263238" stroke-width="0.25" stroke-linecap="round" stroke-linejoin="round"/>
<path d="M386.41 268.168V303.178" stroke="#263238" stroke-width="0.25" stroke-linecap="round" stroke-linejoin="round"/>
<path d="M381.48 273.408V279.658" stroke="#263238" stroke-width="0.25" stroke-linecap="round" stroke-linejoin="round"/>
<path d="M381.48 284.138V309.808" stroke="#263238" stroke-width="0.25" stroke-linecap="round" stroke-linejoin="round"/>
<path d="M369.96 271.238V294.298" stroke="#263238" stroke-width="0.25" stroke-linecap="round" stroke-linejoin="round"/>
<path d="M370.36 301.898V309.078" stroke="#263238" stroke-width="0.25" stroke-linecap="round" stroke-linejoin="round"/>
<path d="M359.51 271.238V284.138" stroke="#263238" stroke-width="0.25" stroke-linecap="round" stroke-linejoin="round"/>
<path d="M359.51 292.068V319.248" stroke="#263238" stroke-width="0.25" stroke-linecap="round" stroke-linejoin="round"/>
<path d="M351.77 270.418V302.458" stroke="#263238" stroke-width="0.25" stroke-linecap="round" stroke-linejoin="round"/>
<path d="M343.11 270.418V282.538" stroke="#263238" stroke-width="0.25" stroke-linecap="round" stroke-linejoin="round"/>
<path d="M343.11 288.838V317.648" stroke="#263238" stroke-width="0.25" stroke-linecap="round" stroke-linejoin="round"/>
<path d="M336.62 309.078V322.088" stroke="#263238" stroke-width="0.25" stroke-linecap="round" stroke-linejoin="round"/>
<path d="M323.23 322.088H402.01" stroke="#263238" stroke-width="0.25" stroke-linecap="round" stroke-linejoin="round"/>
<path d="M386.41 322.088V313.758" stroke="#263238" stroke-width="0.25" stroke-linecap="round" stroke-linejoin="round"/>
<path d="M370.36 315.958V321.698" stroke="#263238" stroke-width="0.25" stroke-linecap="round" stroke-linejoin="round"/>
<path d="M397.61 275.218H405.25" stroke="#263238" stroke-width="0.25" stroke-linecap="round" stroke-linejoin="round"/>
<path d="M323.53 329.348H396.73" stroke="#263238" stroke-width="0.25" stroke-linecap="round" stroke-linejoin="round"/>
<path d="M339.24 350.518V340.818H352.8V347.068H363.71V359.258H369.96V341.188H383.81V345.388H392.32" stroke="#263238" stroke-width="0.25" stroke-linecap="round" stroke-linejoin="round"/>
<path d="M383.81 345.388V355.788" stroke="#263238" stroke-width="0.25" stroke-linecap="round" stroke-linejoin="round"/>
<path d="M370.36 363.658V370.658" stroke="#263238" stroke-width="0.25" stroke-linecap="round" stroke-linejoin="round"/>
<path d="M363.71 359.258V368.478" stroke="#263238" stroke-width="0.25" stroke-linecap="round" stroke-linejoin="round"/>
<path d="M352.8 347.068V352.358" stroke="#263238" stroke-width="0.25" stroke-linecap="round" stroke-linejoin="round"/>
<path d="M416.25 29.4579H176.61V195.028H416.25V29.4579Z" fill="white" stroke="#263238" stroke-width="0.25" stroke-linecap="round" stroke-linejoin="round"/>
<path d="M416.25 29.4579H176.61V45.8279H416.25V29.4579Z" fill="#263238"/>
<path d="M273.69 142.978L268.07 135.158C268.069 133.525 267.985 131.893 267.82 130.268C267.61 129.538 264.2 124.168 264.12 122.898C264.107 122.291 264.03 121.688 263.89 121.098C263.89 121.098 262.14 121.538 262.16 122.608C262.18 123.678 262.37 127.288 262.37 127.288C262.37 127.288 257.81 124.628 257.3 123.928C256.79 123.228 251.23 119.148 250.71 118.538C250.19 117.928 248.07 117.888 247.82 118.538L248.12 119.288L246.37 120.118L247.54 123.588C247.205 124.369 247.003 125.2 246.94 126.048C247.13 126.478 247.75 129.048 247.75 129.048C247.75 129.048 247.37 129.438 247.42 130.798C247.47 132.158 254.94 139.108 256.42 139.858C258.188 140.601 259.997 141.238 261.84 141.768L266.53 147.838L273.69 142.978Z" fill="white" stroke="#263238" stroke-width="0.25" stroke-linecap="round" stroke-linejoin="round"/>
<path d="M262.36 127.288C261.488 129.275 261.264 131.486 261.72 133.608" stroke="#263238" stroke-width="0.25" stroke-linecap="round" stroke-linejoin="round"/>
<path d="M248.11 119.288C249.62 119.868 251.51 122.688 252.38 123.558C253.167 124.268 254.01 124.913 254.9 125.488" stroke="#263238" stroke-width="0.25" stroke-linecap="round" stroke-linejoin="round"/>
<path d="M247.53 123.558C248.77 123.298 249.61 123.778 249.58 124.988C249.55 126.198 252.23 128.038 252.23 128.038" stroke="#263238" stroke-width="0.25" stroke-linecap="round" stroke-linejoin="round"/>
<path d="M247.74 129.018C247.74 129.018 248.61 127.468 249.3 128.178C249.99 128.888 250.21 130.708 251.48 131.088" stroke="#263238" stroke-width="0.25" stroke-linecap="round" stroke-linejoin="round"/>
<path d="M346.77 134.478C346.77 134.478 327.04 135.698 322.69 137.478C319.12 138.948 294.01 155.478 294.01 155.478C294.01 155.478 279.24 144.338 274.95 140.478C274.123 140.078 273.233 139.821 272.32 139.718L270.07 138.288L264.54 146.078L266.09 148.228C266.09 148.228 266.34 151.698 267.03 152.568C276.21 164.098 293.79 180.238 296.43 181.828C299.07 183.418 322.49 169.558 322.49 169.558L326.84 195.058H396.69C396.69 195.058 396.51 150.308 393.57 146.878C390.63 143.448 356.93 129.998 356.93 129.998L346.77 134.478Z" fill="#757575" stroke="#263238" stroke-width="0.25" stroke-linecap="round" stroke-linejoin="round"/>
<path d="M370.36 118.288C370.36 118.288 364.1 122.488 367.42 135.908C367.42 135.908 357.99 142.648 348.66 135.848C348.66 135.848 350.81 125.148 348.66 122.998" fill="white"/>
<path d="M370.36 118.288C370.36 118.288 364.1 122.488 367.42 135.908C367.42 135.908 357.99 142.648 348.66 135.848C348.66 135.848 350.81 125.148 348.66 122.998" stroke="#263238" stroke-width="0.25" stroke-linecap="round" stroke-linejoin="round"/>
<path d="M392.32 148.958C392.32 148.958 383.81 158.748 382.82 175.508" stroke="#263238" stroke-width="0.25" stroke-linecap="round" stroke-linejoin="round"/>
<path d="M354.87 91.3979C354.87 91.3979 349.29 90.5579 347.34 97.3979C346.204 101.587 346.664 106.048 348.63 109.918L358.89 100.288L354.87 91.3979Z" fill="#263238"/>
<path d="M368.45 122.368C375.64 113.788 380.72 99.4879 369.92 93.7779C349.08 82.7579 342.19 104.288 345.69 124.288C346.77 130.458 355.15 127.708 361.28 125.478" fill="white"/>
<path d="M368.45 122.368C375.64 113.788 380.72 99.4879 369.92 93.7779C349.08 82.7579 342.19 104.288 345.69 124.288C346.77 130.458 355.15 127.708 361.28 125.478" stroke="#263238" stroke-width="0.25" stroke-linecap="round" stroke-linejoin="round"/>
<path d="M353.89 103.718C353.89 103.718 357.33 104.648 358.2 106.488" stroke="#263238" stroke-width="0.25" stroke-linecap="round" stroke-linejoin="round"/>
<path d="M348.91 102.808C348.504 102.608 348.053 102.516 347.602 102.541C347.15 102.565 346.712 102.705 346.33 102.948" stroke="#263238" stroke-width="0.25" stroke-linecap="round" stroke-linejoin="round"/>
<path d="M353.83 108.458C353.77 109.068 354.04 109.598 354.43 109.638C354.82 109.678 355.19 109.208 355.25 108.638C355.31 108.068 355.04 107.488 354.65 107.448C354.26 107.408 353.89 107.838 353.83 108.458Z" fill="#263238"/>
<path d="M346.37 106.608C346.32 107.228 346.59 107.758 346.98 107.798C347.37 107.838 347.74 107.368 347.8 106.798C347.86 106.228 347.59 105.658 347.19 105.618C346.79 105.578 346.43 105.998 346.37 106.608Z" fill="#263238"/>
<path d="M365.24 112.468C365.24 112.468 362.01 117.148 359.84 118.648C358.438 119.546 356.749 119.881 355.11 119.588C355.11 119.588 352.34 116.168 348.3 116.118C347.254 115.452 346.065 115.044 344.83 114.928L345.06 109.708C345.06 109.708 341.99 120.898 342.28 124.908C342.57 128.918 352.43 131.698 357.36 130.578C362.29 129.458 364.8 121.788 366.3 114.578C366.41 113.978 365.24 112.468 365.24 112.468Z" fill="#263238"/>
<path d="M345.43 118.698C345.43 118.698 349.33 120.568 352.8 120.128" stroke="white" stroke-width="0.25" stroke-linecap="round" stroke-linejoin="round"/>
<path d="M368.47 98.2079C369.75 97.2079 366.47 92.9079 364.63 92.9979C362.79 93.0879 353.76 93.4279 353.76 93.4279C353.76 93.4279 351.86 83.4879 367.06 88.8579C369.55 89.7379 370.35 92.0679 372.58 93.2579C374.81 94.4479 377.83 100.708 376.97 106.048C376.11 111.388 373.26 120.758 368.09 123.568C368.09 123.568 366.31 123.388 367.39 122.158C372.48 116.428 367.15 105.648 366.3 114.558L364.51 113.488C364.496 112.509 364.596 111.533 364.81 110.578C365.19 108.128 362.48 103.118 368.47 98.2079Z" fill="#263238"/>
<path d="M367.69 111.818C367.69 111.818 370.96 107.938 372.94 109.258C374.92 110.578 373.59 115.258 372.53 116.428C371.47 117.598 370.61 117.858 369.14 119.728C367.67 121.598 365.82 120.968 366.14 119.468" fill="white"/>
<path d="M367.69 111.818C367.69 111.818 370.96 107.938 372.94 109.258C374.92 110.578 373.59 115.258 372.53 116.428C371.47 117.598 370.61 117.858 369.14 119.728C367.67 121.598 365.82 120.968 366.14 119.468" stroke="#263238" stroke-width="0.25" stroke-linecap="round" stroke-linejoin="round"/>
<path d="M357.69 108.958C357.8 111.128 356.48 112.958 354.69 113.048C352.9 113.138 351.44 111.458 351.33 109.288C351.22 107.118 352.54 105.288 354.33 105.198C356.12 105.108 357.56 106.788 357.69 108.958Z" stroke="#263238" stroke-width="0.125" stroke-miterlimit="10"/>
<path d="M348.47 106.988C348.59 109.158 347.26 110.988 345.52 111.088C343.78 111.188 342.27 109.488 342.15 107.318C342.03 105.148 343.37 103.318 345.15 103.228C346.93 103.138 348.36 104.818 348.47 106.988Z" stroke="#263238" stroke-width="0.125" stroke-miterlimit="10"/>
<path d="M349.42 105.128C349.42 106.128 344.24 112.038 344.18 113.338C344.12 114.638 349 114.718 349 114.718" fill="white"/>
<path d="M349.42 105.128C349.42 106.128 344.24 112.038 344.18 113.338C344.12 114.638 349 114.718 349 114.718" stroke="#263238" stroke-width="0.25" stroke-linecap="round" stroke-linejoin="round"/>
<path d="M348.47 106.988C348.47 106.988 350.02 106.598 351.32 108.688" stroke="#263238" stroke-width="0.125" stroke-miterlimit="10"/>
<path d="M357.71 109.718L359.39 109.968L368.82 110.628" stroke="#263238" stroke-width="0.125" stroke-miterlimit="10"/>
<path d="M386.41 154.288L384.53 151.958C384.53 151.958 368.69 153.768 361.69 163.208C361.69 163.208 348.69 157.068 336.99 160.058L336.65 164.248L362.24 179.558L372.24 175.398L386.41 154.288Z" fill="white" stroke="#263238" stroke-width="0.25" stroke-linecap="round" stroke-linejoin="round"/>
<path d="M388.98 152.878L386.28 170.878C386.28 170.878 371.38 177.418 368.28 182.678L367.54 182.778L364.04 183.268L362.15 182.708C357.526 181.362 352.815 180.333 348.05 179.628C346.396 179.373 344.718 179.309 343.05 179.438L332.97 163.728C332.97 163.728 348.56 161.568 359.34 165.258L364.5 164.898L364.69 164.738C366.24 163.468 377.1 154.838 388.98 152.878Z" fill="#FDD835"/>
<mask id="mask0_29_1606" style="mask-type:luminance" maskUnits="userSpaceOnUse" x="332" y="152" width="57" height="32">
<path d="M388.98 152.878L386.28 170.878C386.28 170.878 371.38 177.418 368.28 182.678L367.54 182.778L364.04 183.268L362.15 182.708C357.526 181.362 352.815 180.333 348.05 179.628C346.396 179.373 344.718 179.309 343.05 179.438L332.97 163.728C332.97 163.728 348.56 161.568 359.34 165.258L364.5 164.898L364.69 164.738C366.24 163.468 377.1 154.838 388.98 152.878Z" fill="white"/>
</mask>
<g mask="url(#mask0_29_1606)">
<path opacity="0.3" d="M367.34 178.578L364.69 164.728C366.23 163.468 377.09 154.838 388.97 152.878L386.27 170.878C386.27 170.878 371.37 177.418 368.27 182.678L367.53 182.778L367.34 178.578Z" fill="black"/>
<path opacity="0.3" d="M362.21 179.558L362.14 182.698C357.516 181.352 352.805 180.323 348.04 179.618C348.251 176.442 349.494 173.421 351.578 171.015C353.663 168.609 356.476 166.949 359.59 166.288L362.21 179.558Z" fill="black"/>
</g>
<path d="M388.98 152.878L386.28 170.878C386.28 170.878 371.38 177.418 368.28 182.678L367.54 182.778L364.04 183.268L362.15 182.708C357.526 181.362 352.815 180.333 348.05 179.628C346.396 179.373 344.718 179.309 343.05 179.438L332.97 163.728C332.97 163.728 348.56 161.568 359.34 165.258L364.5 164.898L364.69 164.738C366.24 163.468 377.1 154.838 388.98 152.878Z" stroke="#263238" stroke-width="0.25" stroke-linecap="round" stroke-linejoin="round"/>
<path d="M367.28 187.068C361.94 186.728 351.78 178.548 351.78 178.548C351.169 177.021 350.311 175.606 349.24 174.358C347.79 172.908 349.72 171.698 349.72 171.698C349.72 171.698 348.03 170.608 347.07 170.008C346.11 169.408 347.79 167.828 347.79 167.828C347.79 167.828 355.04 168.828 355.79 168.558C356.54 168.288 363.5 172.788 364.58 172.908C366.047 172.935 367.493 172.558 368.76 171.818C369.48 171.218 371.71 167.468 373.16 166.738C374.61 166.008 377.16 166.018 375.94 167.588C374.72 169.158 374.94 172.658 374.34 173.148C373.74 173.638 372.75 178.898 372.75 180.708L380.65 187.928L376.15 194.058L367.28 187.068Z" fill="white" stroke="#263238" stroke-width="0.25" stroke-linecap="round" stroke-linejoin="round"/>
<path d="M349.69 171.698C351.11 171.857 352.495 172.245 353.79 172.848" stroke="#263238" stroke-width="0.25" stroke-linecap="round" stroke-linejoin="round"/>
<path d="M355.07 174.558C355.07 174.558 354.62 176.388 354.5 176.668C354.38 176.948 355.99 178.738 355.76 179.558C355.53 180.378 357.39 182.558 357.39 182.558" stroke="#263238" stroke-width="0.25" stroke-linecap="round" stroke-linejoin="round"/>
<path d="M353.25 176.668C351.86 176 350.523 175.227 349.25 174.358" stroke="#263238" stroke-width="0.25" stroke-linecap="round" stroke-linejoin="round"/>
<path d="M349.38 131.128L352.84 138.098L367.06 130.218L370.19 137.198L355.68 146.408L352.89 139.198L347.25 144.628L345.34 135.848L349.38 131.128Z" fill="#757575" stroke="#263238" stroke-width="0.25" stroke-linecap="round" stroke-linejoin="round"/>
<path d="M393.61 146.848C397.06 150.538 409.33 177.598 410.51 195.028H373.13V193.468L369.05 191.078C369.05 191.078 371.58 182.178 378.79 183.568L380.89 186.568L385.54 190.068C385.54 190.068 393.7 190.278 396.07 192.628" fill="#757575"/>
<path d="M393.61 146.848C397.06 150.538 409.33 177.598 410.51 195.028H373.13V193.468L369.05 191.078C369.05 191.078 371.58 182.178 378.79 183.568L380.89 186.568L385.54 190.068C385.54 190.068 393.7 190.278 396.07 192.628" stroke="#263238" stroke-width="0.25" stroke-linecap="round" stroke-linejoin="round"/>
<path d="M385.54 190.108C385.54 190.108 390.07 183.578 396.73 186.338" stroke="#263238" stroke-width="0.25" stroke-linecap="round" stroke-linejoin="round"/>
<path d="M383.81 179.558C385.264 182.257 386.559 185.038 387.69 187.888" stroke="#263238" stroke-width="0.25" stroke-linecap="round" stroke-linejoin="round"/>
<path d="M322.49 169.528C322.49 169.528 319.72 153.388 320.49 147.808L322.49 169.528Z" fill="#757575"/>
<path d="M322.49 169.528C322.49 169.528 319.72 153.388 320.49 147.808" stroke="#263238" stroke-width="0.25" stroke-linecap="round" stroke-linejoin="round"/>
<path d="M316.95 154.098C316.95 154.098 318.49 162.028 321.95 166.278L316.95 154.098Z" fill="#757575"/>
<path d="M316.95 154.098C316.95 154.098 318.49 162.028 321.95 166.278" stroke="#263238" stroke-width="0.25" stroke-linecap="round" stroke-linejoin="round"/>
<path d="M294.01 155.488C294.01 155.488 298.36 159.088 295.59 168.068L294.01 155.488Z" fill="#757575"/>
<path d="M294.01 155.488C294.01 155.488 298.36 159.088 295.59 168.068" stroke="#263238" stroke-width="0.25" stroke-linecap="round" stroke-linejoin="round"/>
<path d="M195.25 151.078C196.312 150.122 197.504 149.32 198.79 148.698C198.842 149.019 199.015 149.308 199.274 149.505C199.532 149.702 199.857 149.793 200.18 149.758C200.89 149.648 201.69 148.948 202.18 149.458C202.38 149.658 202.42 149.978 202.63 150.168C203.27 150.758 204.36 149.488 205.08 149.968C205.27 150.098 205.37 150.318 205.57 150.448C205.728 150.516 205.898 150.551 206.07 150.551C206.242 150.551 206.412 150.516 206.57 150.448C208.356 150.041 210.19 149.883 212.02 149.978L220.41 150.038L219.77 149.708" stroke="#263238" stroke-width="0.25" stroke-linecap="round" stroke-linejoin="round"/>
<path d="M194.8 158.078C194.87 157.749 195.053 157.455 195.316 157.247C195.58 157.039 195.908 156.93 196.244 156.938C196.58 156.946 196.902 157.072 197.155 157.293C197.408 157.514 197.576 157.816 197.63 158.148C197.838 158.051 198.023 157.912 198.175 157.74C198.326 157.568 198.44 157.366 198.51 157.148C199.05 158.358 200.72 158.458 202.05 158.368L207.98 157.948C209.76 157.818 211.84 157.498 212.64 155.948C213.519 157.552 213.869 159.393 213.64 161.208C214.19 159.901 214.906 158.671 215.77 157.548C215.95 158.188 216.13 158.828 216.3 159.468C220.43 156.578 226.08 158.468 231.08 157.838" stroke="#263238" stroke-width="0.25" stroke-linecap="round" stroke-linejoin="round"/>
<path d="M195.33 167.348C195.311 167.164 195.361 166.979 195.47 166.83C195.579 166.68 195.739 166.576 195.92 166.538C195.976 166.719 196.069 166.887 196.192 167.032C196.315 167.176 196.467 167.293 196.637 167.377C196.808 167.46 196.994 167.508 197.183 167.516C197.373 167.525 197.562 167.495 197.74 167.428C198.454 167.128 199.065 166.628 199.5 165.988C199.649 166.109 199.822 166.197 200.008 166.245C200.194 166.294 200.388 166.303 200.577 166.271C200.766 166.238 200.946 166.166 201.106 166.059C201.265 165.951 201.399 165.811 201.5 165.648C201.946 166.37 202.315 167.138 202.6 167.938C203.14 166.558 204.97 166.338 206.46 166.348H218.46" stroke="#263238" stroke-width="0.25" stroke-linecap="round" stroke-linejoin="round"/>
<path d="M288.09 58.5079C285.226 58.4384 282.417 59.3056 280.09 60.9779C277.21 62.8179 274.47 65.9179 275.19 69.2579C275.91 72.5979 279.85 74.3679 283.32 75.0379C286.304 75.619 289.34 75.8872 292.38 75.8379C293.551 75.8555 294.719 75.7313 295.86 75.4679C297.013 75.1412 298.132 74.7024 299.2 74.1579L306.94 70.5179C308 70.0179 309.19 69.3779 309.48 68.2379C309.84 66.8279 308.63 65.5179 307.48 64.6679C303.136 61.5609 297.778 60.2106 292.48 60.8879" stroke="#263238" stroke-width="0.25" stroke-linecap="round" stroke-linejoin="round"/>
<path d="M278.9 65.9878C279.355 65.4768 279.944 65.1027 280.6 64.9078C280.47 65.2904 280.47 65.7053 280.6 66.0878C280.78 66.4478 281.33 66.6278 281.6 66.3278C281.87 66.0278 281.93 65.5478 282.23 65.6978L282.59 66.4978C283.08 66.3278 283.46 65.9278 283.94 65.7178C284.487 65.5345 285.069 65.4797 285.64 65.5578C289.934 65.7782 294.238 65.6478 298.51 65.1678" stroke="#263238" stroke-width="0.25" stroke-linecap="round" stroke-linejoin="round"/>
<path d="M285.9 70.2879C285.962 70.0836 286.072 69.8967 286.219 69.7421C286.367 69.5876 286.549 69.4697 286.75 69.3979C286.52 69.6479 286.8 70.0779 287.14 70.1379C287.485 70.1441 287.827 70.0724 288.14 69.9279C288.519 69.83 288.908 69.7763 289.3 69.7679L296.59 69.2679" stroke="#263238" stroke-width="0.25" stroke-linecap="round" stroke-linejoin="round"/>
<path d="M289.01 80.4479C286.901 87.9645 282.528 94.6492 276.486 99.5928C270.444 104.536 263.025 107.499 255.24 108.078" stroke="#263238" stroke-width="0.25" stroke-linecap="round" stroke-linejoin="round"/>
<path d="M255.36 105.908C253.946 106.782 252.685 107.883 251.63 109.168C252.254 109.037 252.902 109.082 253.502 109.297C254.103 109.513 254.631 109.89 255.03 110.388" stroke="#263238" stroke-width="0.25" stroke-linecap="round" stroke-linejoin="round"/>
<path d="M286.61 108.288L287.52 110.288L288.82 108.748C289.063 108.929 289.234 109.192 289.3 109.488C289.4 109.768 289.55 110.078 289.83 110.158C290.11 110.238 290.46 109.858 290.25 109.648C290.434 109.772 290.643 109.856 290.862 109.892C291.081 109.928 291.306 109.917 291.52 109.858C291.71 109.858 291.88 109.718 292.07 109.668C292.296 109.618 292.528 109.598 292.76 109.608H306.27" stroke="#263238" stroke-width="0.25" stroke-linecap="round" stroke-linejoin="round"/>
<path d="M287.24 119.288C287.304 119.128 287.408 118.987 287.542 118.878C287.676 118.77 287.836 118.699 288.006 118.671C288.176 118.642 288.35 118.659 288.512 118.718C288.674 118.777 288.818 118.877 288.93 119.008C288.975 119.136 289.042 119.255 289.13 119.358C289.25 119.443 289.398 119.48 289.544 119.461C289.691 119.443 289.825 119.37 289.92 119.258C290.14 119.058 290.28 118.788 290.51 118.608C291.14 118.118 292.04 118.498 292.81 118.708C293.796 118.914 294.808 118.968 295.81 118.868L303.48 118.468" stroke="#263238" stroke-width="0.25" stroke-linecap="round" stroke-linejoin="round"/>
<path d="M287.48 127.788C287.735 127.795 287.985 127.715 288.19 127.563C288.395 127.411 288.543 127.194 288.61 126.948C288.737 126.969 288.854 127.028 288.947 127.118C289.04 127.207 289.104 127.322 289.13 127.448C289.497 127.221 289.811 126.917 290.05 126.558C294.99 126.618 299.937 126.618 304.89 126.558" stroke="#263238" stroke-width="0.25" stroke-linecap="round" stroke-linejoin="round"/>
<path d="M287.47 134.138C287.776 134.264 288.118 134.273 288.43 134.162C288.742 134.051 289.002 133.829 289.16 133.538C289.473 133.792 289.692 134.144 289.78 134.538C289.977 134.404 290.2 134.313 290.434 134.27C290.668 134.227 290.908 134.233 291.14 134.288C291.33 134.288 291.52 134.418 291.71 134.468C292.19 134.591 292.686 134.635 293.18 134.598L310.42 134.348" stroke="#263238" stroke-width="0.25" stroke-linecap="round" stroke-linejoin="round"/>
<path d="M241.18 174.568L249.01 173.808C249.086 173.818 249.164 173.809 249.236 173.781C249.307 173.753 249.371 173.708 249.421 173.649C249.471 173.59 249.505 173.52 249.52 173.445C249.536 173.37 249.532 173.291 249.51 173.218V168.218C249.529 168.052 249.486 167.884 249.39 167.748C249.325 167.689 249.249 167.644 249.167 167.615C249.085 167.585 248.997 167.573 248.91 167.578C247.21 167.428 243.38 166.578 241.91 167.728C240.44 168.878 241.19 172.858 241.18 174.568Z" stroke="#263238" stroke-width="0.25" stroke-linecap="round" stroke-linejoin="round"/>
<path d="M243.42 170.108C243.52 170.578 243.61 171.048 243.71 171.528C244.897 171.28 246.114 171.216 247.32 171.338" stroke="#263238" stroke-width="0.25" stroke-linecap="round" stroke-linejoin="round"/>
<path d="M247.41 176.728C247.337 176.841 247.297 176.971 247.294 177.106C247.291 177.24 247.326 177.373 247.395 177.488C247.464 177.604 247.563 177.698 247.683 177.759C247.802 177.821 247.936 177.848 248.07 177.838C248.6 177.738 249.02 177.028 249.51 177.248" stroke="#263238" stroke-width="0.25" stroke-linecap="round" stroke-linejoin="round"/>
<path d="M242.02 165.198C242.119 165.049 242.259 164.932 242.423 164.861C242.587 164.791 242.769 164.77 242.945 164.8C243.121 164.831 243.284 164.913 243.415 165.035C243.545 165.157 243.637 165.314 243.68 165.488L245.56 165.268" stroke="#263238" stroke-width="0.25" stroke-linecap="round" stroke-linejoin="round"/>
<path d="M267.52 183.818C268.15 183.588 268.41 184.768 269.06 184.938C269.71 185.108 270.06 184.248 270.61 183.868C270.871 183.695 271.186 183.622 271.496 183.662C271.807 183.703 272.092 183.854 272.3 184.088" stroke="#263238" stroke-width="0.25" stroke-linecap="round" stroke-linejoin="round"/>
<path d="M262.36 164.578C262.96 164.728 262.72 165.728 263.17 166.158C263.62 166.588 264.37 166.158 264.88 165.748C265.39 165.338 266.32 165.158 266.51 165.748" stroke="#263238" stroke-width="0.25" stroke-linecap="round" stroke-linejoin="round"/>
<path d="M416.25 194.798H176.61V211.718H416.25V194.798Z" fill="#BFBFBF" stroke="#263238" stroke-width="0.25" stroke-linecap="round" stroke-linejoin="round"/>
<path d="M371.91 201.458H215.33V205.058H371.91V201.458Z" fill="#263238"/>
<path d="M304.13 203.288C304.13 203.808 303.976 204.316 303.687 204.749C303.398 205.181 302.987 205.519 302.506 205.718C302.026 205.917 301.497 205.969 300.987 205.867C300.477 205.766 300.008 205.515 299.64 205.148C299.273 204.78 299.022 204.311 298.921 203.801C298.819 203.291 298.871 202.762 299.07 202.281C299.269 201.801 299.606 201.39 300.039 201.101C300.471 200.812 300.98 200.658 301.5 200.658C302.198 200.658 302.866 200.935 303.36 201.428C303.853 201.921 304.13 202.59 304.13 203.288Z" fill="#FDD835" stroke="#263238" stroke-width="0.25" stroke-linecap="round" stroke-linejoin="round"/>
<path d="M408.49 200.018H402.01V206.498H408.49V200.018Z" stroke="#263238" stroke-width="0.25" stroke-linecap="round" stroke-linejoin="round"/>
<path d="M397.62 200.018H391.14V206.498H397.62V200.018Z" stroke="#263238" stroke-width="0.25" stroke-linecap="round" stroke-linejoin="round"/>
<path d="M195.32 199.948H184.03V206.568H195.32V199.948Z" stroke="#263238" stroke-width="0.25" stroke-linecap="round" stroke-linejoin="round"/>
<path d="M183.9 37.6379H226.5" stroke="white" stroke-width="0.25" stroke-linecap="round" stroke-linejoin="round"/>
<path d="M410.18 37.4879C410.182 37.9852 410.036 38.4719 409.761 38.8862C409.486 39.3005 409.094 39.6237 408.635 39.8149C408.176 40.0062 407.671 40.0567 407.183 39.9602C406.695 39.8636 406.247 39.6244 405.895 39.2728C405.544 38.9211 405.304 38.473 405.208 37.9852C405.111 37.4973 405.162 36.9918 405.353 36.5328C405.544 36.0737 405.867 35.6818 406.282 35.4068C406.696 35.1317 407.183 34.986 407.68 34.9879C408.343 34.9879 408.979 35.2513 409.448 35.7202C409.917 36.189 410.18 36.8249 410.18 37.4879Z" stroke="white" stroke-width="0.25" stroke-linecap="round" stroke-linejoin="round"/>
<path d="M400.29 37.6379C400.29 38.1324 400.143 38.6157 399.869 39.0269C399.594 39.438 399.204 39.7584 398.747 39.9476C398.29 40.1369 397.787 40.1864 397.302 40.0899C396.817 39.9934 396.372 39.7553 396.022 39.4057C395.673 39.0561 395.435 38.6106 395.338 38.1257C395.242 37.6407 395.291 37.138 395.48 36.6812C395.67 36.2244 395.99 35.834 396.401 35.5593C396.812 35.2846 397.296 35.1379 397.79 35.1379C398.453 35.1379 399.089 35.4013 399.558 35.8702C400.027 36.339 400.29 36.9749 400.29 37.6379Z" stroke="white" stroke-width="0.25" stroke-linecap="round" stroke-linejoin="round"/>
<path d="M390.4 37.7978C390.398 38.2919 390.25 38.7742 389.974 39.184C389.698 39.5938 389.307 39.9127 388.85 40.1004C388.393 40.2881 387.89 40.3362 387.406 40.2386C386.922 40.141 386.477 39.9021 386.129 39.5521C385.78 39.2021 385.543 38.7566 385.447 38.2719C385.352 37.7872 385.402 37.2851 385.591 36.8288C385.781 36.3726 386.101 35.9827 386.512 35.7085C386.923 35.4342 387.406 35.2878 387.9 35.2878C388.229 35.2878 388.555 35.3528 388.859 35.4791C389.163 35.6054 389.439 35.7904 389.671 36.0236C389.904 36.2568 390.088 36.5336 390.213 36.8381C390.338 37.1425 390.401 37.4687 390.4 37.7978Z" stroke="white" stroke-width="0.25" stroke-linecap="round" stroke-linejoin="round"/>
<path d="M200.46 368.488H176.78L163.96 364.428L159.96 363.158L158.79 375.228L18.57 375.488C18.57 375.488 20.71 370.088 24.2 362.168C31.73 345.078 45.53 316.218 57.6 304.428C67.4 294.858 91.88 294.588 91.88 294.588C94.3792 292.931 97.3114 292.047 100.31 292.048C104.81 292.268 138.83 295.958 140.94 297.048C142.409 297.899 143.67 299.068 144.63 300.468C144.63 300.468 156.55 295.198 168.26 299.948C179.97 304.698 200.46 368.488 200.46 368.488Z" fill="#BFBFBF"/>
<mask id="mask1_29_1606" style="mask-type:luminance" maskUnits="userSpaceOnUse" x="18" y="292" width="183" height="84">
<path d="M200.46 368.488H176.78L163.96 364.428L159.96 363.158L158.79 375.228L18.57 375.488C18.57 375.488 20.71 370.088 24.2 362.168C31.73 345.078 45.53 316.218 57.6 304.428C67.4 294.858 91.88 294.588 91.88 294.588C94.3792 292.931 97.3114 292.047 100.31 292.048C104.81 292.268 138.83 295.958 140.94 297.048C142.409 297.899 143.67 299.068 144.63 300.468C144.63 300.468 156.55 295.198 168.26 299.948C179.97 304.698 200.46 368.488 200.46 368.488Z" fill="white"/>
</mask>
<g mask="url(#mask1_29_1606)">
<path opacity="0.2" d="M163.96 364.428L159.96 363.158L158.79 375.228L18.57 375.488C18.57 375.488 20.71 370.088 24.2 362.168C29.61 362.038 35.71 361.758 35.71 361.758L38.85 351.488C38.85 351.488 43.78 346.278 49.94 349.348C49.7345 348.571 49.7774 347.749 50.0625 346.998C50.3477 346.246 50.8608 345.603 51.53 345.158C53.91 343.578 63.67 348.648 63.67 348.648C63.67 348.648 68.37 339.648 69.97 333.758C71.57 327.868 72.63 342.088 72.63 342.088C72.63 342.088 76.63 335.548 76.63 333.758C76.63 331.968 84.01 351.488 84.01 351.488C84.01 351.488 93.77 352.658 96.41 353.658C99.05 354.658 125.33 355.658 133.79 353.658C142.25 351.658 127.79 363.658 127.79 363.658C127.79 363.658 142.65 368.658 151.05 365.378C159.45 362.098 163.21 358.588 163.21 358.588C163.21 358.588 163.52 361.018 163.96 364.428Z" fill="black" fill-opacity="0.7"/>
</g>
<path d="M200.46 368.488H176.78L163.96 364.428L159.96 363.158L158.79 375.228L18.57 375.488C18.57 375.488 20.71 370.088 24.2 362.168C31.73 345.078 45.53 316.218 57.6 304.428C67.4 294.858 91.88 294.588 91.88 294.588C94.3792 292.931 97.3114 292.047 100.31 292.048C104.81 292.268 138.83 295.958 140.94 297.048C142.409 297.899 143.67 299.068 144.63 300.468C144.63 300.468 156.55 295.198 168.26 299.948C179.97 304.698 200.46 368.488 200.46 368.488Z" stroke="#263238" stroke-width="0.25" stroke-linecap="round" stroke-linejoin="round"/>
<path d="M156.24 337.648C154.158 340.584 151.782 343.302 149.15 345.758" stroke="#263238" stroke-width="0.25" stroke-linecap="round" stroke-linejoin="round"/>
<path d="M142.22 351.588C132.032 359.113 120.058 363.852 107.48 365.338" stroke="#263238" stroke-width="0.25" stroke-linecap="round" stroke-linejoin="round"/>
<path d="M186.01 348.178C186.01 348.178 189.65 345.918 192.84 346.658C196.03 347.398 198.67 350.548 198.67 350.548C198.67 350.548 225.15 348.358 231.16 348.548C237.17 348.738 250.62 352.678 250.62 352.678C250.62 352.678 257.14 351.358 257.84 351.628C258.54 351.898 256.43 374.088 256.43 374.088H170.43C166.21 374.088 163.08 367.978 159.91 363.178C165.371 344.078 168.164 324.314 168.21 304.448" fill="#BFBFBF"/>
<mask id="mask2_29_1606" style="mask-type:luminance" maskUnits="userSpaceOnUse" x="159" y="304" width="99" height="71">
<path d="M186.01 348.178C186.01 348.178 189.65 345.918 192.84 346.658C196.03 347.398 198.67 350.548 198.67 350.548C198.67 350.548 225.15 348.358 231.16 348.548C237.17 348.738 250.62 352.678 250.62 352.678C250.62 352.678 257.14 351.358 257.84 351.628C258.54 351.898 256.43 374.088 256.43 374.088H170.43C166.21 374.088 163.08 367.978 159.91 363.178C165.371 344.078 168.164 324.314 168.21 304.448" fill="white"/>
</mask>
<g mask="url(#mask2_29_1606)">
<path opacity="0.2" d="M209.61 374.068H170.45C166.23 374.068 163.1 367.958 159.93 363.158C163.065 352.382 165.296 341.364 166.6 330.218C166.6 330.218 170.76 336.388 168.23 343.538L170.76 336.388C170.76 336.388 173.19 344.048 170.76 350.538C168.33 357.028 166.6 358.888 166.6 358.888C166.6 358.888 169.6 362.808 172.78 361.758C175.96 360.708 179.42 367.068 179.42 367.068C179.42 367.068 187.06 367.358 188.65 367.068C189.38 366.938 199.27 370.348 209.61 374.068Z" fill="black" fill-opacity="0.7"/>
</g>
<path d="M186.01 348.178C186.01 348.178 189.65 345.918 192.84 346.658C196.03 347.398 198.67 350.548 198.67 350.548C198.67 350.548 225.15 348.358 231.16 348.548C237.17 348.738 250.62 352.678 250.62 352.678C250.62 352.678 257.14 351.358 257.84 351.628C258.54 351.898 256.43 374.088 256.43 374.088H170.43C166.21 374.088 163.08 367.978 159.91 363.178C165.371 344.078 168.164 324.314 168.21 304.448" stroke="#263238" stroke-width="0.25" stroke-linecap="round" stroke-linejoin="round"/>
<path d="M136.85 279.078V300.438C134.142 302.282 131.338 303.981 128.45 305.528C122.62 308.618 115.14 311.678 110.69 309.938C102.62 306.768 97.39 294.588 97.39 294.588C106.1 287.948 107.15 279.078 108.47 274.858L136.85 279.078Z" fill="white" stroke="#263238" stroke-width="0.25" stroke-linecap="round" stroke-linejoin="round"/>
<path d="M93.17 296.218C93.17 296.218 100.56 312.308 109.53 315.218C118.5 318.128 133.69 306.768 133.69 306.768" stroke="#263238" stroke-width="0.25" stroke-linecap="round" stroke-linejoin="round"/>
<path d="M52.82 315.688C52.82 315.688 66.82 326.588 69.17 330.258C71.52 333.928 69.17 368.488 69.17 368.488" stroke="#263238" stroke-width="0.25" stroke-linecap="round" stroke-linejoin="round"/>
<path d="M33.76 350.858C42.01 345.538 47.81 351.358 52.82 352.408C57.83 353.458 68.91 347.798 77.22 352.408C85.53 357.018 85.53 355.408 85.53 355.408C85.53 355.408 94.23 362.048 89.74 375.338L18.54 375.468C18.54 375.468 13.79 365.318 29.4 350.838" fill="#BFBFBF"/>
<path d="M33.76 350.858C42.01 345.538 47.81 351.358 52.82 352.408C57.83 353.458 68.91 347.798 77.22 352.408C85.53 357.018 85.53 355.408 85.53 355.408C85.53 355.408 94.23 362.048 89.74 375.338L18.54 375.468C18.54 375.468 13.79 365.318 29.4 350.838" stroke="#263238" stroke-width="0.25" stroke-linecap="round" stroke-linejoin="round"/>
<path d="M103.53 330.288L122.32 364.658L122.91 368.518L119.91 365.848L100.53 331.728C100.815 331.203 101.258 330.781 101.797 330.522C102.336 330.264 102.942 330.182 103.53 330.288Z" fill="black" stroke="#263238" stroke-width="0.25" stroke-linecap="round" stroke-linejoin="round"/>
<path d="M85.69 357.208C87.1091 356.796 88.5667 356.531 90.04 356.418C91.63 356.418 101.41 349.188 104.73 348.648C108.05 348.108 114.02 353.058 117.06 353.848C120.1 354.638 119.91 358.598 121.69 360.178C123.47 361.758 120.9 363.538 118.69 361.758C118.848 362.375 118.858 363.022 118.719 363.644C118.58 364.266 118.296 364.846 117.89 365.338C117.89 365.338 118.49 367.498 117.89 368.488H82.69C82.69 368.488 82.16 361.758 85.69 357.208Z" fill="white" stroke="#263238" stroke-width="0.25" stroke-linecap="round" stroke-linejoin="round"/>
<path d="M118.76 361.758L115.59 358.628L107.48 356.028" stroke="#263238" stroke-width="0.25" stroke-linecap="round" stroke-linejoin="round"/>
<path d="M117.97 365.338L113.12 363.158L106.49 361.908" stroke="#263238" stroke-width="0.25" stroke-linecap="round" stroke-linejoin="round"/>
<path d="M106.49 367.068L113.12 367.368L117.97 368.488" stroke="#263238" stroke-width="0.25" stroke-linecap="round" stroke-linejoin="round"/>
<path d="M104.76 348.648C101.76 351.278 104.76 354.048 103.33 356.028C101.9 358.008 100.33 358.598 101.55 361.758" stroke="#263238" stroke-width="0.25" stroke-linecap="round" stroke-linejoin="round"/>
<path d="M147.57 370.158H307.75C307.75 371.571 307.188 372.927 306.189 373.927C305.189 374.926 303.834 375.488 302.42 375.488H160.42C159.863 375.487 159.31 375.399 158.78 375.228L147.37 371.548C147.207 371.499 147.067 371.393 146.976 371.25C146.884 371.106 146.847 370.935 146.871 370.767C146.896 370.598 146.979 370.444 147.108 370.333C147.236 370.221 147.4 370.159 147.57 370.158Z" fill="black"/>
<mask id="mask3_29_1606" style="mask-type:luminance" maskUnits="userSpaceOnUse" x="146" y="370" width="162" height="6">
<path d="M147.57 370.158H307.75C307.75 371.571 307.188 372.927 306.189 373.927C305.189 374.926 303.834 375.488 302.42 375.488H160.42C159.863 375.487 159.31 375.399 158.78 375.228L147.37 371.548C147.207 371.499 147.067 371.393 146.976 371.25C146.884 371.106 146.847 370.935 146.871 370.767C146.896 370.598 146.979 370.444 147.108 370.333C147.236 370.221 147.4 370.159 147.57 370.158Z" fill="white"/>
</mask>
<g mask="url(#mask3_29_1606)">
<path opacity="0.2" d="M307.75 370.158C307.748 371.571 307.188 372.927 306.19 373.928L306.03 374.068C305.049 374.98 303.76 375.488 302.42 375.488H160.42C159.863 375.487 159.31 375.399 158.78 375.228L147.37 371.548C147.205 371.499 147.064 371.391 146.973 371.246C146.881 371.1 146.845 370.927 146.872 370.757C146.899 370.587 146.987 370.433 147.119 370.323C147.251 370.212 147.418 370.154 147.59 370.158H307.75Z" fill="black" fill-opacity="0.7"/>
<path opacity="0.2" d="M307.75 370.158C307.748 371.571 307.188 372.927 306.19 373.928L306.03 374.068H214.38C213.342 374.068 212.346 373.656 211.612 372.923C210.877 372.19 210.463 371.196 210.46 370.158H307.75Z" fill="black" fill-opacity="0.7"/>
</g>
<path d="M147.57 370.158H307.75C307.75 371.571 307.188 372.927 306.189 373.927C305.189 374.926 303.834 375.488 302.42 375.488H160.42C159.863 375.487 159.31 375.399 158.78 375.228L147.37 371.548C147.207 371.499 147.067 371.393 146.976 371.25C146.884 371.106 146.847 370.935 146.871 370.767C146.896 370.598 146.979 370.444 147.108 370.333C147.236 370.221 147.4 370.159 147.57 370.158Z" stroke="#263238" stroke-width="0.25" stroke-linecap="round" stroke-linejoin="round"/>
<path d="M210.46 370.158C210.463 371.196 210.877 372.19 211.612 372.923C212.346 373.656 213.342 374.068 214.38 374.068H229.59" stroke="#263238" stroke-width="0.25" stroke-linecap="round" stroke-linejoin="round"/>
<path d="M336.42 304.408V304.538L317.78 369.388C317.502 370.221 316.977 370.949 316.275 371.476C315.573 372.003 314.727 372.304 313.85 372.338H216.75C216.382 372.367 216.013 372.303 215.677 372.153C215.34 372.002 215.047 371.769 214.824 371.475C214.601 371.181 214.455 370.836 214.4 370.472C214.345 370.107 214.383 369.734 214.51 369.388L233.13 304.538C233.407 303.704 233.931 302.975 234.633 302.448C235.336 301.921 236.182 301.621 237.06 301.588H334.16C334.516 301.556 334.875 301.613 335.204 301.753C335.533 301.894 335.822 302.113 336.046 302.392C336.269 302.671 336.421 303.001 336.486 303.353C336.551 303.705 336.529 304.067 336.42 304.408Z" fill="black"/>
<mask id="mask4_29_1606" style="mask-type:luminance" maskUnits="userSpaceOnUse" x="214" y="301" width="123" height="72">
<path d="M336.42 304.408V304.538L317.78 369.388C317.502 370.221 316.977 370.949 316.275 371.476C315.573 372.003 314.727 372.304 313.85 372.338H216.75C216.382 372.367 216.013 372.303 215.677 372.153C215.34 372.002 215.047 371.769 214.824 371.475C214.601 371.181 214.455 370.836 214.4 370.472C214.345 370.107 214.383 369.734 214.51 369.388L233.13 304.538C233.407 303.704 233.931 302.975 234.633 302.448C235.336 301.921 236.182 301.621 237.06 301.588H334.16C334.516 301.556 334.875 301.613 335.204 301.753C335.533 301.894 335.822 302.113 336.046 302.392C336.269 302.671 336.421 303.001 336.486 303.353C336.551 303.705 336.529 304.067 336.42 304.408Z" fill="white"/>
</mask>
<g mask="url(#mask4_29_1606)">
<path opacity="0.4" d="M336.42 304.408V304.538L317.78 369.388C317.502 370.221 316.977 370.949 316.275 371.476C315.573 372.003 314.727 372.304 313.85 372.338H217.39V372.208L236 307.358C236.278 306.525 236.803 305.797 237.505 305.27C238.207 304.743 239.053 304.442 239.93 304.408H336.42Z" fill="white"/>
</g>
<path d="M336.42 304.408V304.538L317.78 369.388C317.502 370.221 316.977 370.949 316.275 371.476C315.573 372.003 314.727 372.304 313.85 372.338H216.75C216.382 372.367 216.013 372.303 215.677 372.153C215.34 372.002 215.047 371.769 214.824 371.475C214.601 371.181 214.455 370.836 214.4 370.472C214.345 370.107 214.383 369.734 214.51 369.388L233.13 304.538C233.407 303.704 233.931 302.975 234.633 302.448C235.336 301.921 236.182 301.621 237.06 301.588H334.16C334.516 301.556 334.875 301.613 335.204 301.753C335.533 301.894 335.822 302.113 336.046 302.392C336.269 302.671 336.421 303.001 336.486 303.353C336.551 303.705 336.529 304.067 336.42 304.408Z" stroke="#263238" stroke-width="0.25" stroke-linecap="round" stroke-linejoin="round"/>
<path d="M282.45 338.158C281.623 339.86 280.348 341.306 278.763 342.34C277.178 343.374 275.341 343.957 273.45 344.028C269.37 344.028 266.96 340.868 268.08 336.968C268.75 334.972 270.01 333.227 271.694 331.965C273.378 330.702 275.407 329.981 277.51 329.898H277.69C277.501 330.283 277.347 330.685 277.23 331.098C276.08 334.968 278.43 338.098 282.45 338.158Z" fill="#FDD835" stroke="#263238" stroke-width="0.25" stroke-linecap="round" stroke-linejoin="round"/>
<path d="M217.89 369.158L236.06 305.858C236.222 305.373 236.528 304.948 236.937 304.641C237.346 304.334 237.839 304.158 238.35 304.138H332.47" stroke="#263238" stroke-width="0.25" stroke-linecap="round" stroke-linejoin="round"/>
<path d="M172.78 375.488H38.78L40.4 372.108C40.4 372.108 53.06 373.288 63.09 370.158C67.52 368.778 74.34 368.158 81.18 368.238C85.49 368.298 95.98 368.338 102.49 368.308C104.81 368.308 106.63 368.308 107.49 368.248C107.82 368.248 108.15 368.248 108.49 368.248C110.347 368.225 112.2 368.4 114.02 368.768C115.776 368.569 117.543 368.482 119.31 368.508C122.4 368.508 135.69 368.458 139.31 368.508C144.08 368.568 149.59 369.508 154.82 370.228L154.96 370.178V370.248C161.28 371.128 167.2 371.728 170.96 370.178L172.78 375.488Z" fill="white"/>
<mask id="mask5_29_1606" style="mask-type:luminance" maskUnits="userSpaceOnUse" x="38" y="368" width="135" height="8">
<path d="M172.78 375.488H38.78L40.4 372.108C40.4 372.108 53.06 373.288 63.09 370.158C67.52 368.778 74.34 368.158 81.18 368.238C85.49 368.298 95.98 368.338 102.49 368.308C104.81 368.308 106.63 368.308 107.49 368.248C107.82 368.248 108.15 368.248 108.49 368.248C110.347 368.225 112.2 368.4 114.02 368.768C115.776 368.569 117.543 368.482 119.31 368.508C122.4 368.508 135.69 368.458 139.31 368.508C144.08 368.568 149.59 369.508 154.82 370.228L154.96 370.178V370.248C161.28 371.128 167.2 371.728 170.96 370.178L172.78 375.488Z" fill="white"/>
</mask>
<g mask="url(#mask5_29_1606)">
<path opacity="0.4" d="M172.78 375.488H68.9101L71.0201 371.858C71.0201 371.858 76.6901 375.168 82.2301 372.858C87.7701 370.548 93.3501 369.288 102.49 368.288C104.483 368.075 106.492 368.048 108.49 368.208C112.469 368.513 116.381 369.403 120.1 370.848C120.1 370.848 125.55 368.468 139.31 368.468C144.08 368.528 149.59 369.468 154.82 370.188L154.96 370.138V370.208C161.28 371.088 167.2 371.688 170.96 370.138L172.78 375.488Z" fill="#FDD835"/>
<path d="M71.0201 371.858L40.4401 372.108L38.8201 375.488H68.9101L71.0201 371.858Z" fill="#FDD835"/>
<path d="M69.7701 373.998L71.0201 371.858C73.7238 373.035 76.6413 373.641 79.5901 373.638C84.0701 373.508 91.1501 367.958 104.76 368.228" stroke="#263238" stroke-width="0.25" stroke-linecap="round" stroke-linejoin="round"/>
<path d="M113.99 368.748C116.5 369.668 120.07 370.868 120.07 370.868C120.07 370.868 124.69 368.208 134.84 368.488" stroke="#263238" stroke-width="0.25" stroke-linecap="round" stroke-linejoin="round"/>
<path d="M71.0201 371.858C71.0201 371.858 55.2001 372.138 48.8701 372.278" stroke="#263238" stroke-width="0.25" stroke-linecap="round" stroke-linejoin="round"/>
<path d="M117.96 375.488C118.046 374.836 118.335 374.228 118.785 373.749C119.236 373.27 119.825 372.944 120.47 372.818C122.71 372.448 124.16 375.218 124.16 375.218" stroke="#263238" stroke-width="0.25" stroke-linecap="round" stroke-linejoin="round"/>
<path d="M120.07 370.868L120.47 372.818" stroke="#263238" stroke-width="0.25" stroke-linecap="round" stroke-linejoin="round"/>
<path d="M122.32 372.818C122.32 372.818 129.44 369.568 136.32 370.158" stroke="#263238" stroke-width="0.25" stroke-linecap="round" stroke-linejoin="round"/>
<path d="M119.39 373.208C118.76 372.718 108.07 369.418 97.1301 371.858" stroke="#263238" stroke-width="0.25" stroke-linecap="round" stroke-linejoin="round"/>
<path d="M117.96 374.558C117.96 374.558 108.96 372.848 101.13 374.038" stroke="#263238" stroke-width="0.25" stroke-linecap="round" stroke-linejoin="round"/>
<path d="M123.32 374.058C129.294 372.392 135.546 371.97 141.69 372.818C147.74 373.718 153.854 374.126 159.97 374.038" stroke="#263238" stroke-width="0.25" stroke-linecap="round" stroke-linejoin="round"/>
</g>
<path d="M172.78 375.488H38.78L40.4 372.108C40.4 372.108 53.06 373.288 63.09 370.158C67.52 368.778 74.34 368.158 81.18 368.238C85.49 368.298 95.98 368.338 102.49 368.308C104.81 368.308 106.63 368.308 107.49 368.248C107.82 368.248 108.15 368.248 108.49 368.248C110.347 368.225 112.2 368.4 114.02 368.768C115.776 368.569 117.543 368.482 119.31 368.508C122.4 368.508 135.69 368.458 139.31 368.508C144.08 368.568 149.59 369.508 154.82 370.228L154.96 370.178V370.248C161.28 371.128 167.2 371.728 170.96 370.178L172.78 375.488Z" stroke="#263238" stroke-width="0.25" stroke-linecap="round" stroke-linejoin="round"/>
<path d="M136.85 296.888V300.438C134.142 302.282 131.338 303.981 128.45 305.528C122.04 299.638 121.13 288.448 121.13 288.448L136.85 296.888Z" fill="#263238"/>
<path d="M109.53 276.438C101.99 265.288 103.53 244.438 113.22 233.058C127.46 216.438 164.62 228.578 164.59 252.058C164.561 255.321 164.28 258.578 163.75 261.798C163.26 264.898 160.57 268.028 159.75 271.118C158.93 274.208 159.26 279.118 158.93 282.118C158.19 288.948 148.74 302.498 146.18 303.968C142.6 305.968 123.25 300.538 119.03 288.128" fill="white"/>
<path d="M109.53 276.438C101.99 265.288 103.53 244.438 113.22 233.058C127.46 216.438 164.62 228.578 164.59 252.058C164.561 255.321 164.28 258.578 163.75 261.798C163.26 264.898 160.57 268.028 159.75 271.118C158.93 274.208 159.26 279.118 158.93 282.118C158.19 288.948 148.74 302.498 146.18 303.968C142.6 305.968 123.25 300.538 119.03 288.128" stroke="#263238" stroke-width="0.25" stroke-linecap="round" stroke-linejoin="round"/>
<path d="M135.9 262.658C135.9 262.658 141.17 260.738 145.9 262.658" stroke="#263238" stroke-width="0.25" stroke-linecap="round" stroke-linejoin="round"/>
<path d="M156.69 262.658C156.69 262.658 160.53 260.738 163.1 262.658" stroke="#263238" stroke-width="0.25" stroke-linecap="round" stroke-linejoin="round"/>
<path d="M140.83 271.618C140.55 272.968 139.63 273.928 138.83 273.758C138.03 273.588 137.5 272.338 137.78 270.978C138.06 269.618 138.98 268.668 139.83 268.848C140.68 269.028 141.11 270.288 140.83 271.618Z" fill="#263238"/>
<path d="M157.79 271.618C157.51 272.968 156.59 273.928 155.79 273.758C154.99 273.588 154.46 272.338 154.74 270.978C155.02 269.618 155.93 268.668 156.79 268.848C157.65 269.028 158.07 270.288 157.79 271.618Z" fill="#263238"/>
<path d="M155.02 264.708C155.02 264.708 152.51 269.058 152.25 272.708C151.99 276.358 156.25 283.918 155.02 286.288C153.79 288.658 148.56 288.538 146.84 287.088" fill="white"/>
<path d="M155.02 264.708C155.02 264.708 152.51 269.058 152.25 272.708C151.99 276.358 156.25 283.918 155.02 286.288C153.79 288.658 148.56 288.538 146.84 287.088" stroke="#263238" stroke-width="0.25" stroke-linecap="round" stroke-linejoin="round"/>
<path d="M147.77 291.868C144.314 292.357 140.791 291.854 137.61 290.418" stroke="#263238" stroke-width="0.25" stroke-linecap="round" stroke-linejoin="round"/>
<path d="M117.09 266.158C117.09 266.158 119.55 263.778 122.45 264.708C125.35 265.638 125.88 273.538 125.88 273.538L127.99 271.288C127.99 271.288 127.2 266.818 130.36 260.548C133.52 254.278 131.94 246.898 131.94 246.898C131.94 246.898 137.39 248.738 139.28 252.958C139.28 252.958 141.34 248.478 139.28 245.048C139.28 245.048 147.77 247.158 149.88 253.488C149.88 253.488 151.55 248.738 150.98 246.368C150.98 246.368 156.73 248.208 158.84 253.748C158.84 253.748 160.76 249.528 159.93 246.098C159.93 246.098 162.25 248.098 163.14 254.018C164.872 250.408 165.381 246.333 164.59 242.408C164.59 242.408 167.59 245.838 168.07 248.738C168.07 248.738 170.51 240.298 156.24 228.958C141.97 217.618 117.54 220.188 113.74 228.958C113.74 228.958 115 222.498 117.54 220.188C117.54 220.188 110.54 223.308 110.69 229.748C110.69 229.748 104.51 228.958 101.35 232.918C103.287 232.771 105.234 232.859 107.15 233.178C107.15 233.178 98.71 238.178 99.24 250.058C99.77 261.938 107.15 279.058 107.15 279.058L112.93 277.368C112.93 277.368 113.85 269.288 117.09 266.158Z" fill="#263238"/>
<path d="M123.5 269.058C123.5 269.058 119.02 261.148 116.65 260.618C114.28 260.088 109.79 263.258 110.84 267.478C111.89 271.698 112.69 278.818 114.01 279.608C115.33 280.398 117.44 285.148 119.55 283.828C119.828 283.685 120.068 283.479 120.251 283.226C120.435 282.974 120.557 282.682 120.608 282.374C120.658 282.066 120.636 281.75 120.543 281.452C120.449 281.154 120.287 280.882 120.07 280.658" fill="white"/>
<path d="M123.5 269.058C123.5 269.058 119.02 261.148 116.65 260.618C114.28 260.088 109.79 263.258 110.84 267.478C111.89 271.698 112.69 278.818 114.01 279.608C115.33 280.398 117.44 285.148 119.55 283.828C119.828 283.685 120.068 283.479 120.251 283.226C120.435 282.974 120.557 282.682 120.608 282.374C120.658 282.066 120.636 281.75 120.543 281.452C120.449 281.154 120.287 280.882 120.07 280.658" stroke="#263238" stroke-width="0.25" stroke-linecap="round" stroke-linejoin="round"/>
<path d="M173.61 330.218C173.157 332.167 172.576 334.085 171.87 335.958" stroke="#263238" stroke-width="0.25" stroke-linecap="round" stroke-linejoin="round"/>
<path d="M170.26 339.778C168.666 343.412 166.329 346.672 163.4 349.348" stroke="#263238" stroke-width="0.25" stroke-linecap="round" stroke-linejoin="round"/>
<path d="M198.69 350.548C197.32 350.368 194.53 352.098 191.97 354.328" stroke="#263238" stroke-width="0.25" stroke-linecap="round" stroke-linejoin="round"/>
<path d="M190.09 356.098C188.09 358.168 186.54 360.358 186.54 361.758" stroke="#263238" stroke-width="0.25" stroke-linecap="round" stroke-linejoin="round"/>
<path d="M44.69 345.158C44.69 345.158 50.38 346.738 50.43 351.618" stroke="#263238" stroke-width="0.25" stroke-linecap="round" stroke-linejoin="round"/>
<path d="M66.01 318.518C66.9546 319.575 67.8139 320.705 68.58 321.898" stroke="#263238" stroke-width="0.25" stroke-linecap="round" stroke-linejoin="round"/>
<path d="M70.83 326.018C71.9492 328.448 72.5519 331.083 72.6 333.758C72.6 341.988 70.23 346.758 70.23 346.758" stroke="#263238" stroke-width="0.25" stroke-linecap="round" stroke-linejoin="round"/>
<path d="M100.56 310.448C102.069 311.85 103.684 313.134 105.39 314.288" stroke="#263238" stroke-width="0.25" stroke-linecap="round" stroke-linejoin="round"/>
<path d="M110.41 317.288C115.52 319.868 122.13 321.808 128.99 320.098" stroke="#263238" stroke-width="0.25" stroke-linecap="round" stroke-linejoin="round"/>
<g opacity="0.2">
<path d="M121.13 229.378C122.916 229.105 124.723 228.987 126.53 229.028" stroke="white" stroke-width="0.25" stroke-linecap="round" stroke-linejoin="round"/>
<path d="M129.16 229.168C134.05 229.628 140.07 231.338 143.81 236.498" stroke="white" stroke-width="0.25" stroke-linecap="round" stroke-linejoin="round"/>
<path d="M133 225.368C133 225.368 142.17 225.468 148.74 230.058" stroke="white" stroke-width="0.25" stroke-linecap="round" stroke-linejoin="round"/>
<path d="M151.32 232.288C152.496 233.517 153.438 234.951 154.1 236.518" stroke="white" stroke-width="0.25" stroke-linecap="round" stroke-linejoin="round"/>
<path d="M118.76 233.288C118.76 233.288 127.76 236.458 130.89 242.128" stroke="white" stroke-width="0.25" stroke-linecap="round" stroke-linejoin="round"/>
<path d="M114.4 236.498C116.35 239.2 117.753 242.257 118.53 245.498" stroke="white" stroke-width="0.25" stroke-linecap="round" stroke-linejoin="round"/>
<path d="M119.09 249.948C119.102 251.143 118.991 252.335 118.76 253.508" stroke="white" stroke-width="0.25" stroke-linecap="round" stroke-linejoin="round"/>
<path d="M108.34 240.188C107.877 241.364 107.493 242.57 107.19 243.798" stroke="white" stroke-width="0.25" stroke-linecap="round" stroke-linejoin="round"/>
<path d="M106.48 247.288C105.955 250.406 105.914 253.587 106.36 256.718" stroke="white" stroke-width="0.25" stroke-linecap="round" stroke-linejoin="round"/>
</g>
<path d="M226.36 393.268H352.56V375.488H1V393.268H72.08" fill="white"/>
<path d="M226.36 393.268H352.56V375.488H1V393.268H72.08" stroke="#263238" stroke-width="0.25" stroke-linecap="round" stroke-linejoin="round"/>
<path d="M217.3 393.268H199.38" stroke="#263238" stroke-width="0.25" stroke-linecap="round" stroke-linejoin="round"/>
</svg>
