<svg width="552" height="483" viewBox="0 0 552 483" fill="none" xmlns="http://www.w3.org/2000/svg">
<g clip-path="url(#clip0_29_1856)">
<path opacity="0.18" d="M229.57 421.295C229.57 421.295 196.615 404.955 203.415 362.775C210.215 320.595 276.915 283.815 303.1 256.23C329.285 228.645 356.415 181.225 426.565 184.125C496.715 187.025 495.77 234.05 528.675 251.19C561.58 268.33 530.61 327.89 533.515 342.15C536.42 356.41 573.555 399.5 528.855 429.26C484.155 459.02 229.57 421.295 229.57 421.295Z" fill="#FDD835"/>
<path d="M203.415 462.955V475.455C203.415 475.455 205.005 483.28 219.585 482.85C234.165 482.42 542.425 482.85 542.425 482.85C542.425 482.85 550.315 481.565 551.89 475.135V462.955H203.415Z" fill="#68E1FD"/>
<path d="M203.415 462.955V475.455C203.415 475.455 205.005 483.28 219.585 482.85C234.165 482.42 542.425 482.85 542.425 482.85C542.425 482.85 550.315 481.565 551.89 475.135V462.955H203.415Z" fill="url(#paint0_linear_29_1856)"/>
<path d="M507.6 400.565H243.365C237.105 400.565 232.03 395.495 232.03 389.725V228.075C232.03 221.325 237.105 216.25 243.365 216.25H507.6C510.603 216.255 513.481 217.452 515.602 219.577C517.724 221.702 518.915 224.582 518.915 227.585V389.235C518.915 392.237 517.723 395.117 515.602 397.241C513.48 399.366 510.602 400.561 507.6 400.565Z" fill="#FFF7D1"/>
<path d="M501.605 222.915H249.245C243.418 222.915 238.695 227.638 238.695 233.465V379.99C238.695 385.817 243.418 390.54 249.245 390.54H501.605C507.432 390.54 512.155 385.817 512.155 379.99V233.465C512.155 227.638 507.432 222.915 501.605 222.915Z" fill="#68E1FD"/>
<path d="M502.66 222.915H250.3C244.473 222.915 239.75 227.638 239.75 233.465V379.99C239.75 385.817 244.473 390.54 250.3 390.54H502.66C508.487 390.54 513.21 385.817 513.21 379.99V233.465C513.21 227.638 508.487 222.915 502.66 222.915Z" fill="url(#paint1_linear_29_1856)"/>
<path d="M348.985 294.965C348.985 294.965 345.65 290.81 342.93 294.24C340.21 297.67 344.255 305.81 350.67 305.955C357.085 306.1 348.985 294.965 348.985 294.965Z" fill="url(#paint2_linear_29_1856)"/>
<path d="M256.255 236.435H331.285V295.815H256.255V236.435Z" fill="url(#paint3_linear_29_1856)"/>
<path d="M306.165 255.25C306.235 255.592 306.22 255.946 306.12 256.28C305.989 256.891 305.717 257.463 305.325 257.95C305.126 258.19 304.878 258.386 304.598 258.524C304.318 258.662 304.012 258.739 303.7 258.75C303.657 258.755 303.613 258.75 303.572 258.735C303.532 258.72 303.495 258.696 303.465 258.665C303.432 258.616 303.415 258.559 303.415 258.5C303.375 257.57 303.33 256.16 303.915 255.38C304.455 254.71 305.845 254.08 306.165 255.25Z" fill="url(#paint4_linear_29_1856)"/>
<path d="M282.415 255.2C282.184 255.337 281.995 255.533 281.865 255.767C281.736 256.002 281.672 256.267 281.68 256.535C281.66 257.093 281.837 257.64 282.18 258.08C282.486 258.432 282.847 258.731 283.25 258.965C283.726 259.328 284.294 259.552 284.89 259.61C284.973 259.619 285.056 259.609 285.134 259.58C285.212 259.552 285.283 259.505 285.34 259.445C285.409 259.342 285.442 259.219 285.435 259.095C285.495 257.655 284.755 254.065 282.415 255.2Z" fill="url(#paint5_linear_29_1856)"/>
<path d="M284.545 257.72C284.355 257.749 284.161 257.725 283.984 257.65C283.808 257.575 283.656 257.452 283.545 257.295C283.175 256.765 283.045 256.12 282.545 256.405C282.045 256.69 282.37 257.775 282.795 258.37C283.22 258.965 284.625 259.415 284.865 259.01C285.105 258.605 284.545 257.72 284.545 257.72Z" fill="url(#paint6_linear_29_1856)"/>
<path d="M303.47 257.07C303.656 257.098 303.846 257.073 304.019 256.998C304.191 256.923 304.339 256.8 304.445 256.645C304.82 256.115 304.945 255.47 305.445 255.76C305.945 256.05 305.625 257.125 305.195 257.72C304.765 258.315 303.37 258.77 303.13 258.36C302.89 257.95 303.47 257.07 303.47 257.07Z" fill="url(#paint7_linear_29_1856)"/>
<path d="M305.345 390.54H306.255C305.73 391.56 305.345 390.54 305.345 390.54Z" stroke="#6C62FF" stroke-width="0.37" stroke-miterlimit="10"/>
<path d="M394.74 332.5C394.74 332.5 393.775 337.5 399.625 341.765C398.205 343.82 394.375 347.765 387.855 349.58C384.958 350.366 381.95 350.667 378.955 350.47C373.835 350.18 369.325 347.995 365.72 345.42L365.155 345.005C362.362 342.9 359.843 340.454 357.655 337.725C361.965 334.995 365.57 331.38 361.785 328.18C361.763 328.157 361.737 328.137 361.71 328.12C361.674 328.086 361.636 328.054 361.595 328.025L361.525 327.965C347.125 316.83 348.26 278.465 348.26 278.465C362.86 222.965 398.795 248.005 406.545 250.965C414.295 253.925 419.825 272.265 416.33 292.575C412.265 316.08 394.74 332.5 394.74 332.5Z" fill="url(#paint8_linear_29_1856)"/>
<path d="M458.78 390.54H306.28C306.78 389.59 307.39 386.86 307.94 379.845C310.385 348.55 349.155 342 349.155 342C351.082 341.229 352.966 340.356 354.8 339.385L360.77 346.385C362.45 348.35 366.87 349.845 366.87 349.845C389.69 360.985 399.655 347.71 402.195 343.32C410.79 347.76 432.57 354.59 444.545 363.645C457.695 373.57 458.78 390.54 458.78 390.54Z" fill="#68E1FD"/>
<path d="M453.795 390.54L459.29 339.44H483.06L485.31 390.995L453.795 390.54Z" fill="#68E1FD"/>
<path d="M455.215 377.355L453.8 390.54H306.255C306.755 389.59 307.365 386.86 307.915 379.845C310.385 348.55 349.155 342 349.155 342C351.082 341.229 352.966 340.356 354.8 339.385L360.77 346.385C362.45 348.35 366.87 349.845 366.87 349.845C389.69 360.985 399.655 347.71 402.195 343.32C410.79 347.76 432.57 354.59 444.545 363.645C449.202 367.241 452.872 371.958 455.215 377.355Z" fill="url(#paint9_linear_29_1856)"/>
<path d="M485.31 390.995L453.8 390.54L455.215 377.355L459.29 339.44H483.06L485.31 390.995Z" fill="url(#paint10_linear_29_1856)"/>
<path d="M498.28 300.1C497.895 301.175 495.645 304.825 493.605 308.405C491.84 311.51 490.245 314.555 490.175 315.82C490.03 318.53 486.435 330.445 482.46 334.075C480.01 336.315 481.13 339.435 481.13 339.435L476.045 339.6L460.545 340.1C460.545 340.1 461.805 337.72 459.995 336.755C458.185 335.79 441.995 316.065 441.995 316.065C441.995 316.065 443.17 310.28 450.135 314.14C457.1 318 458.255 321.105 459.985 320.78C461.715 320.455 461.87 293.865 461.87 293.865C461.87 293.865 462.235 281.71 465.46 279.48C468.685 277.25 468.115 287.54 468.115 287.54L470.245 301.49C470.245 301.49 475.47 279.335 477.045 278.335C478.62 277.335 481.72 278.185 480.95 282.45C480.77 283.45 479.725 294.475 479.725 294.475L478.865 301.705C478.865 301.705 487.055 283.95 488.55 283.375C490.045 282.8 492.405 283.51 491.69 286.515C490.975 289.52 487.375 304.96 487.265 305.445C487.565 305.09 494.585 296.645 496.265 295.81C497.945 294.975 498.995 298.1 498.28 300.1Z" fill="url(#paint11_linear_29_1856)"/>
<path d="M402.88 342C402.88 342 400.11 354.545 385.52 355.3C362.795 356.48 353.875 338.275 353.875 338.275L356.58 336.33C356.58 336.33 356.945 336.865 357.64 337.73C360.415 341.185 368.415 349.875 378.955 350.5C391.005 351.19 397.645 344.65 399.625 341.79C399.788 341.558 399.938 341.318 400.075 341.07L402.88 342Z" fill="white"/>
<path d="M265.365 295.815C265.365 295.815 264.4 280.025 277.585 273.315C290.77 266.605 321.93 272.365 320.335 295.815H265.365Z" fill="#FDD835"/>
<path d="M288.34 262.23V266.885C288.34 267.941 287.966 268.963 287.284 269.77C286.602 270.576 285.657 271.115 284.615 271.29L281.345 271.835C281.345 271.835 286.055 282.095 295.915 279.38C305.775 276.665 306.21 273.93 306.21 273.93L303.865 273.115C302.888 272.775 302.041 272.14 301.44 271.298C300.84 270.457 300.514 269.449 300.51 268.415L300.485 262.23H288.34Z" fill="url(#paint12_linear_29_1856)"/>
<path d="M283.915 252.225C283.915 252.225 283.58 258.94 287.575 264.395C291.905 270.31 297.905 271.395 301.915 264.395C303.075 262.395 305.215 251.655 304.35 247.94C303.485 244.225 289.195 233.645 283.915 252.225Z" fill="url(#paint13_linear_29_1856)"/>
<path d="M282.025 246.935C282.327 246.751 282.598 246.522 282.83 246.255C283.031 245.859 283.126 245.418 283.105 244.975C283.33 241.975 285.98 239.68 288.77 238.55C293.77 236.515 299.975 237.38 303.98 241.05C305.43 242.37 306.69 244.05 308.57 244.615C308.956 244.674 309.32 244.828 309.63 245.065C310.235 245.655 309.785 246.705 309.155 247.275C309.002 247.391 308.879 247.542 308.795 247.715C308.61 248.215 309.265 248.635 309.795 248.805C309.317 249.454 308.715 250.003 308.025 250.42C308.375 250.455 308.49 250.96 308.31 251.26C308.091 251.536 307.817 251.762 307.505 251.925C306.63 252.545 306.19 253.59 305.63 254.505C305.07 255.42 304.19 256.31 303.13 256.245C303.773 253.804 303.497 251.211 302.355 248.96C297.475 250.275 292.355 248.705 287.47 247.37C287.109 247.224 286.706 247.224 286.345 247.37C285.72 247.73 285.92 248.665 286.205 249.325C285.59 249.325 285.285 250.07 285.16 250.675C284.98 251.58 284.876 252.498 284.85 253.42C284.85 253.97 285.25 255.795 284.995 256.185C284.495 256.95 283.765 255.735 283.325 255.15C281.915 253.255 279.6 248.89 282.025 246.935Z" fill="#3F3D56"/>
<path d="M243.365 400.565L204.585 458.835C203.9 459.865 203.508 461.06 203.449 462.295C203.39 463.53 203.668 464.758 204.252 465.848C204.835 466.938 205.704 467.849 206.765 468.484C207.825 469.119 209.039 469.455 210.275 469.455H545.06C546.326 469.456 547.567 469.105 548.646 468.442C549.724 467.779 550.597 466.829 551.167 465.699C551.738 464.569 551.983 463.302 551.876 462.041C551.768 460.78 551.313 459.573 550.56 458.555L507.61 400.555L243.365 400.565Z" fill="#68E1FD"/>
<path d="M243.365 400.565L204.585 458.835C203.9 459.865 203.508 461.06 203.449 462.295C203.39 463.53 203.668 464.758 204.252 465.848C204.835 466.938 205.704 467.849 206.765 468.484C207.825 469.119 209.039 469.455 210.275 469.455H545.06C546.326 469.456 547.567 469.105 548.646 468.442C549.724 467.779 550.597 466.829 551.167 465.699C551.738 464.569 551.983 463.302 551.876 462.041C551.768 460.78 551.313 459.573 550.56 458.555L507.61 400.555L243.365 400.565Z" fill="#FFF7D1"/>
<path d="M500.725 411.02H248.8L251.095 406.43H497.285L500.725 411.02Z" fill="url(#paint14_linear_29_1856)"/>
<path d="M505.755 417.74H245.44L248.8 411.02H500.725L505.755 417.74Z" fill="url(#paint15_linear_29_1856)"/>
<path d="M511.07 424.845H241.89L245.44 417.74H505.755L511.07 424.845Z" fill="url(#paint16_linear_29_1856)"/>
<path d="M515.855 431.235H238.695L241.89 424.845H511.07L515.855 431.235Z" fill="url(#paint17_linear_29_1856)"/>
<path d="M331.82 435.67H423.11L435.975 456.775H325.39L331.82 435.67Z" fill="url(#paint18_linear_29_1856)"/>
<path d="M345.62 244.71C345.665 245.6 345.88 246.505 345.67 247.375C345.399 248.175 344.972 248.915 344.415 249.55C338.985 256.875 338.725 266.685 338.685 275.8C338.685 278.1 338.685 280.445 339.345 282.645C340 284.77 341.255 286.645 342.495 288.495C343.09 289.385 347.92 294.85 348.995 294.965C350.435 295.12 346.195 271.035 374.955 268.71C377.83 268.475 380.68 268.835 383.565 268.93C385.27 268.985 386.975 268.77 388.68 268.835C391.555 268.95 394.325 269.875 397.045 270.79C401.97 272.445 407.21 274.33 410.255 278.535L413.005 277.035L413.415 287L413.52 289.39L414.135 303.89L420.455 294.355C424.395 288.41 428.485 281.07 425.585 274.555C424.215 271.485 421.45 269.165 420.275 266.01C418.64 261.615 420.445 256.695 419.925 252.035C418.925 242.955 409.3 237.09 400.215 236.12C398.19 235.905 396.14 235.86 394.14 235.485C392.162 235.053 390.217 234.48 388.32 233.77C384.405 232.43 379.89 231.27 376.32 233.36C374.925 234.175 373.82 235.44 372.32 236.105C369.73 237.27 366.745 236.37 363.92 236.07C358.355 235.5 345.225 236.71 345.62 244.71Z" fill="#3F3D56"/>
<path d="M413.685 297.895C413.685 297.895 417.02 293.74 419.735 297.17C422.45 300.6 418.41 308.74 412 308.885C405.59 309.03 413.685 297.895 413.685 297.895Z" fill="url(#paint19_linear_29_1856)"/>
<path d="M387.855 349.58C387.855 349.58 378.17 354.535 365.72 345.42L365.155 345.005C362.396 342.861 359.88 340.419 357.655 337.725C361.965 334.995 365.57 331.38 361.785 328.18C363.655 329.68 374.98 338.385 382.535 336.325C390.69 334.105 387.915 349.275 387.855 349.58Z" fill="url(#paint20_linear_29_1856)"/>
<path d="M493.605 308.41C491.84 311.515 490.245 314.56 490.175 315.825C490.03 318.535 486.435 330.45 482.46 334.08C480.01 336.32 481.13 339.44 481.13 339.44L476.045 339.605L475.545 339.555C475.545 339.555 477.405 332.11 472.69 328.825C467.975 325.54 462.415 321.965 463.12 317.965C463.825 313.965 467.555 305.105 477.12 309.965C486.685 314.825 493.605 308.41 493.605 308.41Z" fill="url(#paint21_linear_29_1856)"/>
<path d="M478.33 247.6C481.003 247.6 483.17 245.433 483.17 242.76C483.17 240.087 481.003 237.92 478.33 237.92C475.657 237.92 473.49 240.087 473.49 242.76C473.49 245.433 475.657 247.6 478.33 247.6Z" fill="white"/>
</g>
<path d="M194.062 199.688H9.9375C8.7 199.688 7.6875 198.675 7.6875 197.438V188.625C7.6875 187.388 8.7 186.375 9.9375 186.375H194.062C195.3 186.375 196.312 187.388 196.312 188.625V197.438C196.312 198.675 195.3 199.688 194.062 199.688Z" fill="#F7F7F7"/>
<path d="M103.5 189.562C138.087 189.562 166.125 161.524 166.125 126.938C166.125 92.3507 138.087 64.3125 103.5 64.3125C68.9132 64.3125 40.875 92.3507 40.875 126.938C40.875 161.524 68.9132 189.562 103.5 189.562Z" fill="#F3FAFF"/>
<path d="M181.125 171.169C182.456 167.775 183.806 164.006 182.55 160.594C182.25 159.769 181.781 158.887 182.063 158.044C182.438 156.9 183.938 156.506 184.425 155.419C184.988 154.219 184.106 152.831 184.331 151.537C184.556 150.225 185.85 149.362 187.106 148.894C188.363 148.425 189.731 148.125 190.744 147.262C192.675 145.575 192.45 142.556 192.019 140.006C191.587 137.475 191.269 134.475 193.125 132.694C189.713 133.35 186.225 134.025 183.263 135.825C180.3 137.625 177.938 140.812 178.106 144.281C178.2 146.025 178.875 147.881 178.088 149.419C177.225 151.087 174.919 151.744 174.338 153.525C173.663 155.569 175.669 157.444 176.456 159.45C177.206 161.344 176.85 163.462 177.019 165.469C177.188 167.494 178.238 169.781 180.244 170.081L181.125 171.169Z" fill="#FFBE55"/>
<path opacity="0.31" d="M181.125 171.169C182.456 167.775 183.806 164.006 182.55 160.594C182.25 159.769 181.781 158.887 182.063 158.044C182.438 156.9 183.938 156.506 184.425 155.419C184.988 154.219 184.106 152.831 184.331 151.537C184.556 150.225 185.85 149.362 187.106 148.894C188.363 148.425 189.731 148.125 190.744 147.262C192.675 145.575 192.45 142.556 192.019 140.006C191.587 137.475 191.269 134.475 193.125 132.694C189.713 133.35 186.225 134.025 183.263 135.825C180.3 137.625 177.938 140.812 178.106 144.281C178.2 146.025 178.875 147.881 178.088 149.419C177.225 151.087 174.919 151.744 174.338 153.525C173.663 155.569 175.669 157.444 176.456 159.45C177.206 161.344 176.85 163.462 177.019 165.469C177.188 167.494 178.238 169.781 180.244 170.081L181.125 171.169Z" fill="white"/>
<path d="M179.756 166.725C179.719 156.863 181.631 136.219 193.012 132.769" stroke="white" stroke-width="0.140625" stroke-miterlimit="10" stroke-linecap="round"/>
<path d="M173.194 170.344C171.169 166.556 169.069 162.338 170.062 158.156C170.306 157.144 170.719 156.056 170.288 155.1C169.706 153.825 167.887 153.544 167.156 152.344C166.35 151.031 167.175 149.269 166.725 147.788C166.275 146.269 164.644 145.463 163.125 145.069C161.606 144.694 159.956 144.544 158.644 143.644C156.15 141.937 156 138.356 156.15 135.337C156.3 132.319 156.262 128.756 153.844 126.938C157.931 127.238 162.113 127.556 165.825 129.263C169.538 130.969 172.762 134.381 173.025 138.469C173.156 140.512 172.613 142.781 173.756 144.487C174.994 146.325 177.788 146.775 178.725 148.781C179.794 151.087 177.712 153.544 177.056 156C176.456 158.306 177.15 160.744 177.225 163.125C177.3 165.506 176.381 168.338 174.075 168.975L173.194 170.344Z" fill="#FFBE55"/>
<path d="M174.187 164.944C172.875 153.375 167.812 129.469 153.994 127.012" stroke="white" stroke-width="0.140625" stroke-miterlimit="10" stroke-linecap="round"/>
<path d="M186 192.562H168.188C166.95 192.562 165.938 191.55 165.938 190.312L164.438 164.625C164.438 163.388 165.45 162.375 166.688 162.375H187.5C188.737 162.375 189.75 163.388 189.75 164.625L188.25 190.312C188.25 191.55 187.237 192.562 186 192.562Z" fill="#CCE9FF"/>
<path d="M24.4773 110.982L35.9709 109.239L43.7852 160.775L32.2916 162.518L24.4773 110.982Z" fill="#FFBE55"/>
<path d="M30.2201 110.115L35.9669 109.244L43.7812 160.78L38.0344 161.651L30.2201 110.115Z" fill="#FFBE55"/>
<path d="M35.9813 109.294L24.4875 111.038L27.1875 104.119L28.725 100.219L31.35 103.5L35.9813 109.294Z" fill="#FFEBC2"/>
<path d="M31.35 103.5L27.1875 104.119L28.725 100.219L31.35 103.5Z" fill="#0E538C"/>
<path d="M45.2091 97.4402L56.7876 98.4771L52.1386 150.394L40.5601 149.357L45.2091 97.4402Z" fill="#FFBE55"/>
<path d="M51.0095 97.9628L56.7987 98.4812L52.1497 150.398L46.3604 149.879L51.0095 97.9628Z" fill="#FFBE55"/>
<path d="M56.7938 98.5313L45.2063 97.5L49.4813 91.425L51.9 87.9938L53.6625 91.8L56.7938 98.5313Z" fill="#FFEBC2"/>
<path d="M53.6625 91.8L49.4812 91.425L51.9 87.9938L53.6625 91.8Z" fill="#0E538C"/>
<path d="M64.4062 192.75H18.7313L12.75 122.062H68.0625L64.4062 192.75Z" fill="#CCE9FF"/>
<path opacity="0.5" d="M40.4062 192.75H64.4062L68.0625 122.062H40.4062V192.75Z" fill="#CCE9FF"/>
<path d="M50.4375 172.8H166.5V188.756H50.4375V172.8Z" fill="#FFEBC2"/>
<path d="M50.925 172.8V188.756H172.688V189.956C172.688 191.438 171.394 192.638 169.8 192.638H51.45C47.6812 192.638 44.625 189.825 44.625 186.338V175.669C44.625 172.181 47.6812 169.369 51.45 169.369H169.8C171.394 169.369 172.688 170.569 172.688 172.05V172.819H50.925V172.8Z" fill="#FFBE55"/>
<path d="M50.4375 179.906H166.5V188.737H50.4375V179.906Z" fill="#FFEBC2"/>
<path d="M65.4375 153.375H159.75V167.25H65.4375V153.375Z" fill="#CCE9FF"/>
<path d="M65.4375 153.375V167.25H163.312V168.3C163.312 169.594 162.262 170.625 160.987 170.625H65.85C62.8313 170.625 60.375 168.169 60.375 165.15V155.869C60.375 152.85 62.8313 150.394 65.85 150.394H160.987C162.262 150.394 163.312 151.444 163.312 152.719V153.394H65.4375V153.375Z" fill="#2A94F4"/>
<path d="M106.2 106.144C104.906 104.437 104.794 102.094 106.013 100.312C106.988 98.8875 107.644 97.125 107.569 95.8312C107.419 93.5062 105.975 91.3687 104.006 90.0937C101.419 88.4062 97.9688 88.1625 95.175 89.475C92.3813 90.7875 90.3563 93.6 90 96.6562C89.7375 98.85 90.2438 101.25 89.1188 103.163C88.2938 104.531 86.775 105.337 85.275 105.881C83.7563 106.406 82.1625 106.763 80.775 107.569C79.3875 108.375 78.2063 109.762 78.225 111.375C78.2438 112.594 78.9375 113.719 79.0125 114.919C79.125 116.681 77.8875 118.237 76.575 119.4C75.2438 120.562 73.725 121.575 72.825 123.094C71.3438 125.606 72.0375 129 73.9125 131.25C75.7875 133.5 78.6 134.756 81.4125 135.487C89.1 137.512 97.2 136.2 105.131 136.069C107.588 136.031 110.1 136.106 112.481 135.487C114.863 134.869 117.188 133.444 118.181 131.194C119.194 128.944 118.688 126.206 117.338 124.162C115.988 122.119 113.869 120.637 111.638 119.587C110.025 118.819 108.3 118.219 106.987 117.019C105.675 115.819 104.906 113.775 105.788 112.219C106.125 111.619 106.688 111.15 107.006 110.55C107.644 109.387 107.381 107.906 106.669 106.781C106.538 106.594 106.388 106.387 106.2 106.144Z" fill="#0E538C"/>
<path d="M65.4375 159.562H159.75V167.25H65.4375V159.562Z" fill="#CCE9FF"/>
<path d="M108 139.875L119.625 148.125L133.875 177.562H131.25L115.312 151.5C115.312 151.5 109.875 151.688 108 150C106.125 148.312 95.3438 141 95.3438 141L108 139.875Z" fill="#0B4870"/>
<path d="M87.4313 137.512C85.3125 143.25 86.8125 151.312 93.9375 151.687C101.063 152.062 103.313 151.687 103.313 151.687L117.188 179.812H120.375L109.5 148.312L96.2813 141L87.4313 137.512Z" fill="#0E538C"/>
<path d="M98.25 104.812C100.125 107.25 104.625 114 106.312 121.5C108 129 112.688 139.875 112.688 139.875H107.25L102 122.062L97.125 105.375L98.25 104.812Z" fill="#4EA3FB"/>
<path d="M104.025 94.8562C104.306 99.45 102.3 102.6 99.4312 102.75C96.5625 102.9 94.6875 98.7375 95.55 94.8562C97.5562 91.4062 100.294 91.125 100.294 91.125H102.019L104.025 94.8562Z" fill="#FFE3CA"/>
<path d="M102.112 92.1187C101.587 93.7312 100.425 95.1188 98.925 95.9062C97.425 96.6937 95.625 96.8812 93.9937 96.3937L98.0812 90.5625H101.587L104.944 93.225L104.437 96.2812C103.125 95.2875 102.112 92.1187 102.112 92.1187Z" fill="#0E538C"/>
<path d="M98.5688 102.206C97.9688 104.531 98.1562 106.969 98.1562 107.344C97.5938 108.094 94.9688 107.906 94.5938 105.281C95.1562 101.906 96.2812 98.1562 96.2812 98.1562L97.2188 100.219L98.5688 102.206Z" fill="#FFE3CA"/>
<path d="M94.9688 103.294C92.625 104.062 84.75 107.625 84.375 108.375C84.9375 110.437 87.75 141 87.75 141H100.5C100.5 141 98.8125 124.125 99.75 123C100.688 121.875 103.688 117.937 103.312 117.375C102.938 116.812 98.175 104.719 98.175 104.719L94.9688 103.294Z" fill="#2A94F4"/>
<path d="M84.375 108.375C82.5375 109.781 74.8125 122.438 77.25 129.188C79.6875 135.938 87.6562 139.913 87.6562 139.913V136.2C87.6562 136.2 81.1875 131.062 81.5625 127.312C81.9375 123.562 86.4375 115.875 86.4375 115.875L84.375 108.375Z" fill="#4EA3FB"/>
<path d="M114.581 143.156H86.9812C86.1187 143.156 85.4062 142.444 85.4062 141.581L84.6562 123.919C84.6562 123.056 85.3687 122.344 86.2312 122.344H114.956C115.819 122.344 116.531 123.056 116.531 123.919L116.156 141.581C116.156 142.444 115.444 143.156 114.581 143.156Z" fill="#FFBE55"/>
<path d="M119.925 179.812C121.781 180.225 124.294 182.269 125.494 183.319C125.737 183.525 125.587 183.937 125.25 183.937C123.319 183.9 118.95 183.694 117.937 182.831C116.625 181.706 117 179.831 117 179.831H119.925V179.812ZM133.837 177.487C135.487 177.937 137.662 179.85 138.75 180.881C138.994 181.106 138.806 181.5 138.487 181.481C136.669 181.35 132.769 180.994 131.888 180.15C130.725 179.062 131.156 177.356 131.156 177.356L133.837 177.487Z" fill="#1A87D8"/>
<path d="M100.688 135.562C102.241 135.562 103.5 134.303 103.5 132.75C103.5 131.197 102.241 129.938 100.688 129.938C99.1342 129.938 97.875 131.197 97.875 132.75C97.875 134.303 99.1342 135.562 100.688 135.562Z" fill="white"/>
<path d="M75.9375 172.688L72.375 170.625L68.8125 172.688V159.563H75.9375V172.688ZM131.175 94.9688C131.175 95.325 131.044 95.6438 130.819 95.9063C131.044 96.15 131.175 96.4875 131.175 96.8438V98.0063C131.175 98.25 131.1 98.4938 130.987 98.7C131.1 98.9063 131.175 99.15 131.175 99.3938V100.556C131.175 101.325 130.556 101.944 129.788 101.944H117.712C116.944 101.944 116.325 101.325 116.325 100.556V99.375C116.325 99.1313 116.4 98.8875 116.513 98.6813C116.4 98.475 116.325 98.2313 116.325 97.9875V96.825C116.325 96.4688 116.456 96.15 116.681 95.8875C116.456 95.6438 116.325 95.3063 116.325 94.95V93.7875C116.325 93.0188 116.944 92.4 117.712 92.4H129.788C130.556 92.4 131.175 93.0188 131.175 93.7875V94.9688ZM140.812 68.6813C140.812 75.45 136.875 81.2813 131.175 84.0563V90.3563C131.175 90.825 130.781 91.2188 130.312 91.2188H117.188C116.719 91.2188 116.325 90.825 116.325 90.3563V84.0563C110.625 81.3 106.688 75.45 106.688 68.6813C106.688 59.25 114.319 51.6188 123.75 51.6188C133.181 51.6188 140.812 59.2688 140.812 68.6813Z" fill="#FFBE55"/>
<path opacity="0.23" d="M129.562 96H118.125M129.562 98.625H118.125" stroke="#7F7F7F" stroke-width="0.375" stroke-miterlimit="10" stroke-linecap="round"/>
<path d="M126.675 70.7813C126.469 70.5938 126.169 70.5 125.85 70.5375C125.456 70.575 125.081 70.8 124.837 71.1188C124.631 71.4 124.519 71.7375 124.462 72.0563C124.294 71.9625 124.106 71.8688 123.938 71.7563L123.881 71.7188H123.638L123.581 71.7563C123.394 71.8688 123.225 71.9625 123.056 72.0563C123 71.7375 122.887 71.4 122.681 71.1188C122.456 70.8 122.063 70.575 121.669 70.5375C121.35 70.5 121.069 70.5938 120.844 70.7813C120.562 71.0438 120.469 71.4188 120.562 71.8125C120.713 72.3375 121.144 72.7688 121.65 72.8625C121.969 72.9188 122.269 72.9 122.587 72.825C123.056 78.9188 123.244 85.0875 123.112 91.1813H123.675C123.806 85.0688 123.619 78.8813 123.15 72.7875C123.15 72.7313 123.15 72.675 123.131 72.6188C123.356 72.525 123.562 72.4125 123.769 72.2813C123.975 72.3938 124.181 72.525 124.406 72.6188C124.406 72.675 124.406 72.7313 124.388 72.7875C123.919 78.8813 123.731 85.0688 123.862 91.1813H124.425C124.294 85.0875 124.481 78.9 124.95 72.825C125.25 72.9 125.569 72.9375 125.888 72.8625C126.375 72.7688 126.825 72.3375 126.975 71.8125C127.05 71.4188 126.956 71.0438 126.675 70.7813ZM121.744 72.3375C121.462 72.2813 121.181 72 121.087 71.6813C121.05 71.55 121.031 71.3438 121.2 71.2125C121.294 71.1188 121.425 71.1 121.519 71.1H121.594C121.819 71.1188 122.062 71.25 122.212 71.4563C122.381 71.6813 122.475 71.9625 122.513 72.2813C122.25 72.3563 122.006 72.375 121.744 72.3375ZM126.413 71.6813C126.319 72 126.056 72.2813 125.756 72.3375C125.513 72.3938 125.25 72.3563 125.006 72.2813C125.063 71.9625 125.137 71.6813 125.306 71.4563C125.437 71.2688 125.681 71.1375 125.925 71.1C126.037 71.0813 126.188 71.1 126.319 71.2125C126.45 71.3438 126.431 71.55 126.413 71.6813Z" fill="white"/>
<path d="M119.25 54.75C115.125 56.25 108.375 61.6875 108.938 70.5" stroke="white" stroke-width="0.75" stroke-miterlimit="10" stroke-linecap="round"/>
<path d="M96.6562 85.3125C99.2969 85.3125 101.438 83.1719 101.438 80.5312C101.438 77.8906 99.2969 75.75 96.6562 75.75C94.0156 75.75 91.875 77.8906 91.875 80.5312C91.875 83.1719 94.0156 85.3125 96.6562 85.3125Z" fill="#FFBE55"/>
<path d="M147.844 66.9375C149.035 66.9375 150 65.9721 150 64.7812C150 63.5904 149.035 62.625 147.844 62.625C146.653 62.625 145.688 63.5904 145.688 64.7812C145.688 65.9721 146.653 66.9375 147.844 66.9375Z" fill="#FFBE55"/>
<path d="M140.812 102.188C142.78 102.188 144.375 100.593 144.375 98.625C144.375 96.6575 142.78 95.0625 140.812 95.0625C138.845 95.0625 137.25 96.6575 137.25 98.625C137.25 100.593 138.845 102.188 140.812 102.188Z" fill="#FFBE55"/>
<path d="M106.688 52.5C108.655 52.5 110.25 50.905 110.25 48.9375C110.25 46.97 108.655 45.375 106.688 45.375C104.72 45.375 103.125 46.97 103.125 48.9375C103.125 50.905 104.72 52.5 106.688 52.5Z" fill="#FFBE55"/>
<path opacity="0.14" d="M75.9375 172.688L72.375 170.625L68.8125 172.688V159.562H75.9375V172.688Z" fill="#0C0C0C"/>
<defs>
<linearGradient id="paint0_linear_29_1856" x1="376.74" y1="449.77" x2="382.335" y2="567.225" gradientUnits="userSpaceOnUse">
<stop stop-opacity="0"/>
<stop offset="0.97"/>
</linearGradient>
<linearGradient id="paint1_linear_29_1856" x1="374.365" y1="174.055" x2="378.965" y2="462.56" gradientUnits="userSpaceOnUse">
<stop stop-color="white"/>
<stop offset="1" stop-color="white" stop-opacity="0"/>
</linearGradient>
<linearGradient id="paint2_linear_29_1856" x1="349.775" y1="298.97" x2="334.84" y2="303.185" gradientUnits="userSpaceOnUse">
<stop stop-color="#ECC4D7"/>
<stop offset="0.42" stop-color="#EFD4D1"/>
<stop offset="1" stop-color="#F2EAC9"/>
</linearGradient>
<linearGradient id="paint3_linear_29_1856" x1="296.04" y1="220.29" x2="290.235" y2="337.405" gradientUnits="userSpaceOnUse">
<stop stop-color="white"/>
<stop offset="1" stop-color="white" stop-opacity="0"/>
</linearGradient>
<linearGradient id="paint4_linear_29_1856" x1="303.405" y1="256.675" x2="306.21" y2="256.675" gradientUnits="userSpaceOnUse">
<stop stop-color="#ECC4D7"/>
<stop offset="0.42" stop-color="#EFD4D1"/>
<stop offset="1" stop-color="#F2EAC9"/>
</linearGradient>
<linearGradient id="paint5_linear_29_1856" x1="281.68" y1="257.295" x2="285.45" y2="257.295" gradientUnits="userSpaceOnUse">
<stop stop-color="#ECC4D7"/>
<stop offset="0.42" stop-color="#EFD4D1"/>
<stop offset="1" stop-color="#F2EAC9"/>
</linearGradient>
<linearGradient id="paint6_linear_29_1856" x1="283.69" y1="257.645" x2="283.26" y2="259.6" gradientUnits="userSpaceOnUse">
<stop stop-color="#ECC4D7"/>
<stop offset="0.42" stop-color="#EFD4D1"/>
<stop offset="1" stop-color="#F2EAC9"/>
</linearGradient>
<linearGradient id="paint7_linear_29_1856" x1="304.325" y1="256.995" x2="304.75" y2="258.95" gradientUnits="userSpaceOnUse">
<stop stop-color="#ECC4D7"/>
<stop offset="0.42" stop-color="#EFD4D1"/>
<stop offset="1" stop-color="#F2EAC9"/>
</linearGradient>
<linearGradient id="paint8_linear_29_1856" x1="348.22" y1="296.645" x2="417.385" y2="296.645" gradientUnits="userSpaceOnUse">
<stop stop-color="#ECC4D7"/>
<stop offset="0.42" stop-color="#EFD4D1"/>
<stop offset="1" stop-color="#F2EAC9"/>
</linearGradient>
<linearGradient id="paint9_linear_29_1856" x1="381.115" y1="338.705" x2="379.735" y2="502.735" gradientUnits="userSpaceOnUse">
<stop stop-opacity="0"/>
<stop offset="0.97"/>
</linearGradient>
<linearGradient id="paint10_linear_29_1856" x1="474.185" y1="354.11" x2="459.075" y2="443.135" gradientUnits="userSpaceOnUse">
<stop stop-opacity="0"/>
<stop offset="0.97"/>
</linearGradient>
<linearGradient id="paint11_linear_29_1856" x1="442.01" y1="309.035" x2="498.51" y2="309.035" gradientUnits="userSpaceOnUse">
<stop stop-color="#ECC4D7"/>
<stop offset="0.42" stop-color="#EFD4D1"/>
<stop offset="1" stop-color="#F2EAC9"/>
</linearGradient>
<linearGradient id="paint12_linear_29_1856" x1="292.915" y1="268.9" x2="294.775" y2="277.475" gradientUnits="userSpaceOnUse">
<stop stop-color="#ECC4D7"/>
<stop offset="0.42" stop-color="#EFD4D1"/>
<stop offset="1" stop-color="#F2EAC9"/>
</linearGradient>
<linearGradient id="paint13_linear_29_1856" x1="288.845" y1="243.07" x2="298.42" y2="260.79" gradientUnits="userSpaceOnUse">
<stop stop-color="#ECC4D7"/>
<stop offset="0.42" stop-color="#EFD4D1"/>
<stop offset="1" stop-color="#F2EAC9"/>
</linearGradient>
<linearGradient id="paint14_linear_29_1856" x1="374.87" y1="383.91" x2="374.4" y2="502.295" gradientUnits="userSpaceOnUse">
<stop stop-opacity="0"/>
<stop offset="0.97"/>
</linearGradient>
<linearGradient id="paint15_linear_29_1856" x1="377.475" y1="331.7" x2="374.68" y2="459.875" gradientUnits="userSpaceOnUse">
<stop stop-color="white"/>
<stop offset="0.6" stop-color="white" stop-opacity="0.48"/>
<stop offset="0.87" stop-color="white" stop-opacity="0.13"/>
<stop offset="1" stop-color="white" stop-opacity="0"/>
</linearGradient>
<linearGradient id="paint16_linear_29_1856" x1="376.64" y1="383.915" x2="376.175" y2="502.305" gradientUnits="userSpaceOnUse">
<stop stop-opacity="0"/>
<stop offset="0.97"/>
</linearGradient>
<linearGradient id="paint17_linear_29_1856" x1="379.325" y1="337.285" x2="376.525" y2="465.465" gradientUnits="userSpaceOnUse">
<stop stop-color="white"/>
<stop offset="1" stop-color="white" stop-opacity="0"/>
</linearGradient>
<linearGradient id="paint18_linear_29_1856" x1="382.025" y1="411.88" x2="376.895" y2="583.4" gradientUnits="userSpaceOnUse">
<stop stop-opacity="0"/>
<stop offset="0.97"/>
</linearGradient>
<linearGradient id="paint19_linear_29_1856" x1="412.895" y1="301.9" x2="427.83" y2="306.115" gradientUnits="userSpaceOnUse">
<stop stop-color="#ECC4D7"/>
<stop offset="0.42" stop-color="#EFD4D1"/>
<stop offset="1" stop-color="#F2EAC9"/>
</linearGradient>
<linearGradient id="paint20_linear_29_1856" x1="373.175" y1="340.92" x2="361.6" y2="416.165" gradientUnits="userSpaceOnUse">
<stop stop-color="#ECC4D7"/>
<stop offset="0.42" stop-color="#EFD4D1"/>
<stop offset="1" stop-color="#F2EAC9"/>
</linearGradient>
<linearGradient id="paint21_linear_29_1856" x1="472.645" y1="306.87" x2="505.94" y2="354.605" gradientUnits="userSpaceOnUse">
<stop stop-color="#ECC4D7"/>
<stop offset="0.42" stop-color="#EFD4D1"/>
<stop offset="1" stop-color="#F2EAC9"/>
</linearGradient>
<clipPath id="clip0_29_1856">
<rect width="349.405" height="298.87" fill="white" transform="translate(202.5 184)"/>
</clipPath>
</defs>
</svg>
