<svg xmlns="http://www.w3.org/2000/svg" xmlns:xlink="http://www.w3.org/1999/xlink" viewBox="0,0,256,256" width="96px" height="96px" fill-rule="nonzero"><g fill="#ffffff" fill-rule="nonzero" stroke="none" stroke-width="1" stroke-linecap="butt" stroke-linejoin="miter" stroke-miterlimit="10" stroke-dasharray="" stroke-dashoffset="0" font-family="none" font-weight="none" font-size="none" text-anchor="none" style="mix-blend-mode: normal"><g transform="scale(10.66667,10.66667)"><path d="M8.56,4.94l-6.02,10.4l3.005,-14.193c0.097,-0.457 0.712,-0.544 0.931,-0.131zM9.67,7.02l1.2,2.25l-5.53,5.23zM14.16,6.15l-1.79,1.7l-1.52,-2.86l0.973,-1.674c0.198,-0.341 0.694,-0.329 0.876,0.021zM21.13,18.74l-8.8,5.12c-0.15,0.1 -0.33,0.14 -0.5,0.14c-0.17,0 -0.35,-0.04 -0.5,-0.13l-8.05,-4.65l15.367,-14.563c0.291,-0.276 0.771,-0.114 0.837,0.281l2.126,12.772c0.07,0.41 -0.12,0.82 -0.48,1.03z"></path></g></g></svg>