<svg xmlns="http://www.w3.org/2000/svg" xmlns:xlink="http://www.w3.org/1999/xlink" viewBox="0,0,256,256" width="100px" height="100px" fill-rule="nonzero"><g fill="#ffffff" fill-rule="nonzero" stroke="none" stroke-width="1" stroke-linecap="butt" stroke-linejoin="miter" stroke-miterlimit="10" stroke-dasharray="" stroke-dashoffset="0" font-family="none" font-weight="none" font-size="none" text-anchor="none" style="mix-blend-mode: normal"><g transform="scale(5.12,5.12)"><path d="M2.60938,14.62891c-0.41525,0.03487 -0.77777,0.36873 -0.25977,0.92774c0.995,0.562 -0.9813,0.97556 -0.4043,1.35156c0.184,0.396 -0.01473,0.8372 -0.55273,0.9082c-0.788,0.068 -0.71331,1.14408 0.05469,0.58008c0.857,-0.272 0.14814,0.10755 -0.25586,0.18555c-0.907,0.264 -1.52505,1.17005 -0.99805,1.99805c0.504,1.14 0.6383,2.41166 1.0293,3.59766c0.647,1.824 1.59231,3.55959 2.82031,5.05859c0.583,0.85 1.43533,1.45398 2.23633,2.08398c0.788,0.511 1.6655,1.0222 2.5625,1.2832c1.593,0.583 3.30256,0.63753 4.97656,0.76953c1.02,-0.002 2.04378,-0.07391 3.05078,-0.25391c0.906,0.098 1.55795,-0.67658 2.37695,-0.26758c0.496,-0.44 1.21884,-0.24836 1.71484,-0.56836c0.367,-1.248 -1.26039,-0.24742 -1.77539,-0.85742c-0.56,0.658 -1.02998,-0.07219 -1.70898,0.13281c-1.156,0.058 0.08759,-0.51788 0.05859,-1.04687c-0.613,-0.47 -1.30527,0.64531 -1.69726,0.94531c-0.968,-0.175 -1.92645,-0.45014 -2.81445,-0.86914c-1.012,-0.527 -2.00528,-1.15397 -2.73828,-2.04297c-0.767,-0.908 -1.61484,-1.82619 -1.96484,-2.99219c-0.74,-1.925 -0.69186,-4.00925 -0.88086,-6.03125c0.07,-1.369 1.51563,0.14734 2.14063,-0.34766c-0.214,-0.71 -1.35437,-0.93475 -1.98437,-1.21875c-0.608,-0.042 -0.82956,-0.58686 -1.47656,-0.63086c0.031,-0.76 -1.18881,-0.34181 -1.63281,-0.88281c0.437,-1.128 -1.44778,0.02678 -1.30078,-0.94922c0.307,-0.6345 -0.16092,-0.89816 -0.57617,-0.86328zM2.61523,14.72461c0.09856,-0.02459 0.21192,-0.00481 0.32617,0.08594c0.542,0.73 -0.99689,-0.08372 -0.46289,0.61328c-0.32475,-0.15225 -0.15897,-0.62544 0.13672,-0.69922zM41.91406,15.08594c-0.067,0 -0.24239,0.09134 -0.52539,0.27734c-0.35,0.226 -0.71947,0.4042 -1.10547,0.5332c-0.242,0.083 -0.36133,0.19866 -0.36133,0.34766c0,0.103 0.08391,0.18323 0.25391,0.24023c0.361,0.119 0.59794,0.28314 0.71094,0.49414c0.083,0.165 0.125,0.45786 0.125,0.88086v6.75586c0,0.592 -0.14278,0.92409 -0.42578,0.99609c-0.315,0.082 -0.47266,0.20328 -0.47266,0.36328c0,0.067 0.00563,0.12025 0.01563,0.15625c0.025,0.103 0.19295,0.14123 0.50195,0.11523c1.227,-0.098 2.09828,-0.12217 2.61328,-0.07617c0.165,0.016 0.26569,0.00847 0.30469,-0.01953c0.039,-0.028 0.05859,-0.1017 0.05859,-0.2207c0,-0.15 -0.12128,-0.24048 -0.36328,-0.27148c-0.392,-0.041 -0.642,-0.09792 -0.75,-0.16992c-0.154,-0.103 -0.23805,-0.31844 -0.24805,-0.64844c-0.01,-0.33 -0.01367,-0.58281 -0.01367,-0.75781c0,-0.247 0.12128,-0.43827 0.36328,-0.57227c0.216,-0.155 0.36708,-0.23242 0.45508,-0.23242c0.072,0 0.13173,0.043 0.17773,0.125c0.567,0.959 1.25827,1.87595 2.07227,2.75195c0.123,0.129 0.33014,0.16442 0.61914,0.10742c0.583,-0.046 1.05306,-0.07117 1.41406,-0.07617c0.242,-0.01 0.36328,-0.10711 0.36328,-0.28711c0,-0.144 -0.02894,-0.23263 -0.08594,-0.26563c-0.057,-0.033 -0.20245,-0.05078 -0.43945,-0.05078c-0.319,0 -0.6633,-0.1567 -1.0293,-0.4707c-0.572,-0.499 -1.18022,-1.23975 -1.82422,-2.21875c-0.175,-0.273 -0.26172,-0.44558 -0.26172,-0.51758c0,-0.046 0.01955,-0.08423 0.06055,-0.11523c0.556,-0.556 1.08031,-0.94597 1.57031,-1.16797c0.351,-0.165 0.72409,-0.25648 1.12109,-0.27148c0.253,-0.015 0.37891,-0.11016 0.37891,-0.28516c0,-0.186 -0.08023,-0.28211 -0.24023,-0.28711c-0.489,0 -0.98156,-0.00281 -1.47656,-0.00781c-0.711,-0.005 -1.25205,-0.03198 -1.62305,-0.08398c-0.165,-0.026 -0.25648,0.05242 -0.27148,0.23242c-0.01,0.18 0.07586,0.27978 0.25586,0.30078c0.417,0.057 0.625,0.15397 0.625,0.29297c0,0.077 -0.06155,0.18155 -0.18555,0.31055c-0.624,0.541 -1.14817,0.9775 -1.57617,1.3125c-0.16,0.134 -0.27847,0.20117 -0.35547,0.20117c-0.072,0 -0.10937,-0.06717 -0.10937,-0.20117l-0.01367,-4.83789c0,-0.634 0.00281,-1.13962 0.00781,-1.51562c0.005,-0.546 0.00781,-0.80162 0.00781,-0.76562c0,-0.268 -0.10736,-0.40039 -0.31836,-0.40039zM24.26758,15.14063c-0.082,0 -0.27889,0.09134 -0.58789,0.27734c-0.376,0.237 -0.73984,0.41239 -1.08984,0.52539c-0.232,0.077 -0.34766,0.19461 -0.34766,0.34961c0,0.103 0.08023,0.18128 0.24023,0.23828c0.304,0.108 0.51572,0.26103 0.63672,0.45703c0.121,0.196 0.18359,0.50292 0.18359,0.91992v6.99414c0,0.422 -0.14088,0.67672 -0.42187,0.76172c-0.281,0.085 -0.41992,0.1885 -0.41992,0.3125c0,0.139 0.02327,0.22486 0.07227,0.25586c0.049,0.03 0.17962,0.03467 0.39063,0.01367c1.052,-0.088 1.93158,-0.0963 2.64258,-0.0293c0.232,0.025 0.34766,-0.06548 0.34766,-0.27148c0,-0.149 -0.11466,-0.23672 -0.34766,-0.26172c-0.376,-0.046 -0.64187,-0.1412 -0.79687,-0.2832c-0.155,-0.142 -0.23242,-0.36959 -0.23242,-0.68359l-0.0293,-6.90234c-0.006,-0.494 -0.00133,-0.99781 0.01367,-1.50781c0.021,-0.536 0.03125,-0.79444 0.03125,-0.77344c0,-0.263 -0.09416,-0.39258 -0.28516,-0.39258zM13.98828,15.95313c-0.057,0.01 -0.09705,0.06411 -0.12305,0.16211c-0.051,0.16 0.02642,0.28591 0.23242,0.37891c0.329,0.15 0.55478,0.317 0.67578,0.5c0.121,0.183 0.18164,0.44516 0.18164,0.78516v6.61719c0,0.83 -0.25281,1.27308 -0.75781,1.33008c-0.221,0.021 -0.33203,0.09647 -0.33203,0.23047c0,0.212 0.11003,0.30249 0.33203,0.27148c0.793,-0.108 1.80048,-0.11167 3.02148,-0.01367c0.422,0.036 0.64869,-0.03117 0.67969,-0.20117c0.031,-0.195 -0.08003,-0.30603 -0.33203,-0.33203c-0.494,-0.062 -0.81584,-0.13199 -0.96484,-0.20898c-0.191,-0.093 -0.28711,-0.26934 -0.28711,-0.52734v-3.47656c0,-0.066 0.04567,-0.10156 0.13867,-0.10156c0.819,0 1.41239,0.02241 1.77539,0.06641c0.363,0.044 0.61209,0.3892 0.74609,1.0332c0.037,0.17 0.12553,0.24547 0.26953,0.23047c0.175,-0.01 0.26086,-0.08084 0.25586,-0.21484c-0.052,-1.123 -0.00533,-2.03533 0.13867,-2.73633c0.026,-0.124 -0.04961,-0.20424 -0.22461,-0.24023c-0.206,-0.046 -0.32533,0.03423 -0.36133,0.24023c-0.057,0.377 -0.11483,0.60922 -0.17383,0.69922c-0.059,0.09 -0.1757,0.14502 -0.3457,0.16602c-0.871,0.057 -1.53514,0.08875 -1.99414,0.09375c-0.149,0.005 -0.22266,-0.05092 -0.22266,-0.16992v-3.50195c0,-0.119 0.02417,-0.19642 0.07617,-0.23242c0.083,-0.057 0.25934,-0.08398 0.52734,-0.08398c1.17,0 1.89936,0.02236 2.19336,0.06836c0.273,0.036 0.4932,0.14336 0.6582,0.31836c0.14,0.149 0.28641,0.41111 0.44141,0.78711c0.056,0.139 0.15678,0.20898 0.30078,0.20898c0.144,0 0.21484,-0.08023 0.21484,-0.24023c0.02,-0.814 0.07411,-1.39328 0.16211,-1.73828c0.005,-0.021 0.00777,-0.04041 0.00977,-0.06641c0,-0.077 -0.17258,-0.10694 -0.51758,-0.08594c-1.036,0.062 -2.2655,0.09375 -3.6875,0.09375c-1.206,0 -1.97188,-0.02613 -2.29687,-0.07812c-0.222,-0.036 -0.35816,-0.04625 -0.41016,-0.03125zM3.79102,16.13672c0.138,0.02925 0.18564,0.11161 -0.19336,0.16211l-0.15234,-0.00781c-0.02,-0.1595 0.2077,-0.18355 0.3457,-0.1543zM3.63867,16.66992c0.274,0.12 0.83573,0.17556 0.92773,0.47656c-0.561,-0.292 0.11163,0.35184 -0.35937,0.33984c-0.254,0.003 -0.72436,-0.54241 -0.56836,-0.81641zM3.49805,17.12305c0.635,0.483 -0.35386,-0.00027 -0.75586,0.30273c-0.633,0.064 0.69386,-0.35673 0.75586,-0.30273zM5.17578,17.41211c0.08103,0.02238 0.08102,0.09902 -0.05273,0.25977c0.492,0.588 0.11039,0.38966 -0.22461,-0.02734c0.294,0.203 0.06723,1.07956 -0.38477,0.47656c-0.32,-0.596 -0.52259,-0.19316 -0.18359,0.21484c-0.333,-0.627 -1.29695,-0.35914 -2.00195,-0.11914c-0.455,-0.05 1.18238,-0.38875 1.35938,-0.46875c0.27375,0.00525 1.24519,-0.40306 1.48828,-0.33594zM7.14844,18.07617c0.20111,-0.00259 0.39945,0.00498 0.5957,0.02148c0.315,0.367 -0.23845,0.9883 -0.81445,1.0293c-0.7,0.262 -1.4125,0.32611 -2.0625,0.41211c-0.834,-0.105 -1.43287,0.64523 -2.29687,0.74023c0.23,-0.426 -0.18895,-0.14697 -0.62695,-0.16797c0.223,0.86 -1.543,-0.22855 -0.5,-0.43555c-0.782,-0.278 -0.79294,0.54372 -0.71094,1.01172h-0.05273c-0.716,-0.922 0.08033,-1.29802 0.98633,-1.41602c-0.172,0.425 0.24739,0.56167 0.65039,0.63867c0.653,-0.18 -0.42955,-0.2958 0.06445,-0.4668c0.271,-0.05 -0.86397,-0.27144 0.08203,-0.39844c0.97,-0.163 1.84269,-0.54414 2.80469,-0.74414c0.651,-0.129 1.27753,-0.21683 1.88086,-0.22461zM6.93359,18.29492c-0.08563,-0.02662 -0.28472,0.02692 -0.38672,0.29492c0.074,0.169 0.1107,-0.04942 0.0957,-0.10742c0.3495,-0.0535 0.37664,-0.16088 0.29102,-0.1875zM4.91602,18.6543c-0.27987,-0.01288 -0.73839,0.04769 -0.90039,0.24219c0.206,0.094 0.43252,-0.26011 0.72852,-0.03711c0.5525,-0.105 0.45175,-0.1922 0.17188,-0.20508zM8.91211,18.70508c0.13989,-0.02284 0.57305,0.13891 0.41992,0.41016c-0.105,0.03 -0.08706,-0.1283 -0.16406,-0.1543c-0.31725,-0.16163 -0.3398,-0.24216 -0.25586,-0.25586zM3.48633,19.08008c-0.07314,-0.00008 -0.13167,0.03305 -0.13867,0.12305l0.14063,0.12891c0.56175,0.04575 0.21747,-0.25172 -0.00195,-0.25195zM3.17188,19.33789c-0.10428,-0.01524 -0.20091,0.04253 -0.25391,0.23828c0.098,-0.024 0.25366,0.03252 0.34766,0.10352c0.5925,0.405 0.21909,-0.29609 -0.09375,-0.3418zM6.98242,19.43359c0.52002,-0.10177 0.3683,1.24433 0.20117,1.6582c0.315,-0.215 0.25434,0.99917 0.15234,1.45117c0.172,-0.231 0.24278,0.37378 0.05078,0.80078c0.016,-0.07 0.41609,-0.131 0.12109,0.375c-0.225,-0.496 -0.32273,1.00898 -0.17773,0.33398c0.397,-0.638 0.29306,-0.03395 0.41406,0.24805c0.078,0.585 0.33897,1.12458 0.41797,1.64258c0.367,0.37 -0.1563,0.11914 -0.1543,0.61914c0.119,-0.145 0.60456,0.20366 0.60156,0.72266c0.04,-0.823 0.08728,-0.19252 0.48828,0.02148c0.335,0.54 0.58594,1.04523 1.08594,1.49023c0.39,0.451 -0.02447,0.13416 0.14453,0.41016c0.414,0.734 1.37313,1.15956 2.20313,1.35156c0.364,0.474 0.91039,0.94547 1.65039,0.73047c-0.626,0.386 1.76308,0.49098 0.95508,0.70898c-0.42,0.228 -0.81852,-0.14695 -1.22852,-0.12695c-0.57,-0.196 -1.47103,-0.79667 -2.08203,-0.38867c-0.845,0.529 0.43305,-0.58984 -0.25195,-0.08984c-0.694,0.833 -0.47144,-0.51828 -1.14844,-0.11328c-0.039,-0.129 -0.60178,-0.16458 -0.17578,-0.39258c-0.382,-0.024 -0.14386,-0.04852 -0.00586,-0.35352c-0.164,-0.034 -1.07559,-0.00178 -1.43359,-0.30078c-0.422,-0.549 0.07367,-0.32609 0.51367,-0.24609c-0.706,0.124 0.24284,0.52969 0.71484,0.30469c-0.212,-0.09 -0.45462,-0.54822 -1.01562,-0.94922c-0.784,-0.472 -1.42919,-0.69722 -2.24219,-1.07422c-0.88,-0.522 0.19695,-0.18516 0.50195,0.08984c0.878,0.387 0.53244,-0.54316 0.02344,-0.78516c-0.558,0.023 -0.70144,-0.61803 -1.14844,-0.58203c0.706,0.113 1.19616,-0.18258 0.41016,-0.89258c-0.747,-0.872 0.31195,0.65794 -0.12305,0.46094c-0.198,-0.261 -0.04964,-0.63649 -0.68164,-0.77148c-0.007,0.241 -0.08661,0.61442 -0.22461,0.10742c-0.176,0.03 -0.37748,0.22317 -0.52148,-0.29883c0.136,-0.593 -0.58722,-0.72842 -0.69922,-1.10742c0.625,0.399 0.90784,0.08444 0.46484,-0.35156c-0.305,-0.533 -0.34758,-0.11502 -0.51758,-0.04102c-0.613,0.626 -0.05612,-1.07989 -0.32812,-0.58789c-0.274,-0.008 -0.11633,0.30155 -0.11133,0.68555c-0.896,-0.222 0.21756,0.47152 0.47656,0.85352c-0.409,-0.428 -0.33964,0.32084 -0.68164,-0.03516c-0.116,-0.315 -0.13217,-0.81239 -0.70117,-0.90039c0.647,-0.224 -0.38483,-0.67912 -0.29883,-0.70312c0.37,-0.337 0.41728,-0.80017 0.86328,-0.07617c-0.565,-0.046 -0.01595,0.93262 0.12305,0.64063c-0.022,-0.501 0.23095,-1.02681 -0.62305,-1.25781c-0.251,0.338 -0.68364,-0.66217 -0.18164,-0.45117c-0.066,-0.664 0.77861,-0.27255 0.72461,-0.56055c0.436,-0.191 -0.52781,-0.80769 -0.00781,-1.05469c0.398,0.242 1.43033,-0.3808 0.73633,-0.4668c0.434,-0.004 0.78212,0.18609 0.82813,-0.25391c0.351,0.076 1.3005,0.37834 0.4375,-0.09766c0.276,-0.137 0.85931,-0.25281 1.19531,-0.25781c0.10363,-0.08062 0.19134,-0.12413 0.26563,-0.13867zM36.62109,19.99219c-0.664,0 -1.1948,0.14827 -1.5918,0.44727c-0.428,0.31 -0.64062,0.74183 -0.64062,1.29883c0,0.453 0.13716,0.81403 0.41016,1.08203c0.252,0.252 0.75386,0.54586 1.50586,0.88086c0.52,0.227 0.87078,0.4257 1.05078,0.5957c0.165,0.15 0.24805,0.33464 0.24805,0.55664c0,0.505 -0.36284,0.75781 -1.08984,0.75781c-0.861,0 -1.48509,-0.33672 -1.87109,-1.01172c-0.088,-0.149 -0.19436,-0.21617 -0.31836,-0.20117c-0.124,0.01 -0.18555,0.15083 -0.18555,0.42383c0,0.634 0.0215,0.98855 0.0625,1.06055c0.067,0.077 0.30956,0.16091 0.72656,0.25391c0.484,0.103 0.96912,0.15625 1.45313,0.15625c0.727,0 1.3007,-0.16238 1.7207,-0.48437c0.42,-0.322 0.62891,-0.75478 0.62891,-1.30078c0,-0.494 -0.15394,-0.88855 -0.46094,-1.18555c-0.237,-0.226 -0.6857,-0.48262 -1.3457,-0.76562c-0.629,-0.273 -1.02726,-0.47452 -1.19727,-0.60352c-0.191,-0.15 -0.28711,-0.34856 -0.28711,-0.60156c0,-0.453 0.35259,-0.67969 1.05859,-0.67969c0.624,0 1.13988,0.33109 1.54688,0.99609c0.057,0.093 0.16984,0.12194 0.33984,0.08594c0.159,-0.041 0.2318,-0.09511 0.2168,-0.16211c-0.129,-0.546 -0.21486,-0.96295 -0.25586,-1.25195c-0.016,-0.098 -0.20908,-0.18105 -0.58008,-0.24805c-0.345,-0.066 -0.72753,-0.09961 -1.14453,-0.09961zM30.1875,20.02344c-0.608,0 -1.24039,0.17453 -1.90039,0.51953c-0.629,0.33 -0.94336,0.61823 -0.94336,0.86523c0,0.396 0.21177,0.5742 0.63477,0.5332c0.371,-0.031 0.65552,-0.24558 0.85352,-0.64258c0.198,-0.397 0.40886,-0.5957 0.63086,-0.5957c0.778,0 1.15014,0.42453 1.11914,1.26953l-0.01367,0.49414c-0.005,0.216 -0.1832,0.35878 -0.5332,0.42578c-2.041,0.387 -3.06055,1.02502 -3.06055,1.91602c0,0.469 0.15389,0.84028 0.46289,1.11328c0.283,0.247 0.63559,0.37109 1.05859,0.37109c0.448,0 0.89489,-0.10541 1.33789,-0.31641c0.443,-0.211 0.68838,-0.31836 0.73438,-0.31836c0.062,0 0.16922,0.09892 0.32422,0.29492c0.154,0.196 0.3322,0.29297 0.5332,0.29297c0.237,0 0.55327,-0.10912 0.94727,-0.32812c0.394,-0.219 0.5918,-0.38223 0.5918,-0.49023c0,-0.201 -0.07556,-0.30173 -0.22656,-0.30273c-0.026,0 -0.11734,0.01306 -0.27734,0.03906c-0.16,0.026 -0.26722,0.03906 -0.32422,0.03906c-0.288,0 -0.43078,-0.16695 -0.42578,-0.50195l0.03125,-3.18555c0.01,-0.995 -0.50869,-1.49219 -1.55469,-1.49219zM6.92578,20.25977c-0.13148,0.03769 -0.33706,0.73658 -0.19531,0.98633c0.312,0.497 0.62419,-1.22153 0.36719,-0.64453c-0.138,0.735 -0.27908,0.42786 -0.08008,-0.11914c-0.012,-0.17575 -0.04797,-0.23522 -0.0918,-0.22266zM2.53516,20.91016c0.0497,-0.00223 0.13698,0.00175 0.27148,0.01563c0.694,-0.024 0.47117,0.38511 0.07617,0.41211c-0.009,0.026 -0.36184,-0.08464 -0.21484,-0.18164c0.952,0.12075 -0.48073,-0.23047 -0.13281,-0.24609zM4.2832,21.15234c0.05788,0.12975 0.15603,0.37392 0.08203,0.48242c0.195,0.193 0.86117,0.53645 0.32617,0.06445c0.341,-0.068 -0.04505,-0.17589 -0.24805,-0.33789c-0.2355,-0.3535 -0.21803,-0.33873 -0.16016,-0.20898zM2.01953,21.16992c0.1575,-0.00613 0.31917,0.07472 0.01367,0.26172c-0.3245,-0.1625 -0.17117,-0.25559 -0.01367,-0.26172zM6.45898,21.625c-0.01011,-0.01438 -0.01541,-0.00164 -0.00391,0.06836c0.11775,0.264 0.03423,-0.02523 0.00391,-0.06836zM4.09375,21.88867c0.092,0.133 0.34103,0.07412 0.45703,0.20313c1.048,0.434 -0.09403,-0.28112 -0.45703,-0.20312zM3.92969,21.9707c-0.05156,0.01172 -0.0423,0.08022 0.07227,0.23828c0.072,0.163 0.24563,0.17684 0.39063,0.21484c1.1245,0.51837 -0.23948,-0.5039 -0.46289,-0.45312zM1.99414,22.05859c0.17087,0.02788 0.37639,0.11998 0.15039,0.20898l-0.0918,-0.03516c-0.3655,-0.1665 -0.22947,-0.2017 -0.05859,-0.17383zM3.58398,22.19531c-0.0512,0.00267 -0.00728,0.07952 0.23047,0.29102l0.1543,0.1582c0.78,0.21375 -0.23116,-0.45723 -0.38477,-0.44922zM3.47852,22.4043c-0.04027,-0.00127 0.32155,0.38566 0.1543,0.37891c-0.579,-0.423 -0.34262,-0.12383 -0.01562,0.20117c0.355,0.527 0.64831,-0.31392 0.07031,-0.41992c-0.1375,-0.1155 -0.19556,-0.15973 -0.20898,-0.16016zM5.93555,22.95508c-0.00736,0.02414 -0.00864,0.1057 0.00586,0.2832c0.09675,0.08775 0.01622,-0.35562 -0.00586,-0.2832zM6.44727,23c-0.12473,0.00075 -0.21841,0.88506 0.08984,1.07031c0.127,0.365 0.26259,0.21478 0.30859,-0.19922c-0.298,0.006 0.12266,-0.64853 -0.27734,-0.51953c-0.035,-0.25475 -0.07952,-0.35181 -0.12109,-0.35156zM7.30859,23.01953c-0.02238,-0.04962 -0.0762,0.05888 -0.0957,0.42188v0.10352c0.108,-0.2685 0.11808,-0.47577 0.0957,-0.52539zM1.46875,23.04883c0.07903,-0.01903 0.5295,0.89328 0.46875,1.14453c-0.276,-0.096 -0.26263,-0.52786 -0.39062,-0.75586c-0.08875,-0.27225 -0.10447,-0.38233 -0.07812,-0.38867zM4.75977,23.09375c-0.073,0.203 0.15497,0.8687 0.29297,1.0957c0.352,0.541 0.19408,-0.29586 0.58008,0.24414c-0.212,-0.474 0.09969,-0.21597 0.05469,-0.41797c-0.098,-0.204 -1.04723,-1.28375 -0.61523,-0.46875c0.391,0.972 -0.2455,-0.12213 -0.3125,-0.45312zM1.2832,23.25195c0.10567,0.06811 0.38891,0.52891 0.44141,0.78516c0.445,0.536 0.26947,0.83128 0.73047,1.48828c-0.593,-0.374 -0.70503,-1.26675 -1.08203,-1.84375c-0.15413,-0.37012 -0.15325,-0.47056 -0.08984,-0.42969zM30.37109,23.37305c0.05088,0.00388 0.09105,0.01661 0.12305,0.03711c0.065,0.041 0.09484,0.12491 0.08984,0.25391l-0.01562,1.26953c0,0.16 -0.15952,0.29716 -0.47852,0.41016c-0.273,0.098 -0.53888,0.14648 -0.79687,0.14648c-0.644,0 -0.9668,-0.29567 -0.9668,-0.88867c0,-0.588 0.62128,-0.99284 1.86328,-1.21484c0.0695,-0.013 0.13077,-0.01755 0.18164,-0.01367zM4.55664,24.93164c0.23855,0.07487 0.09438,0.85506 0.45313,0.96094c0.801,1.045 -0.55481,0.03069 -1.00781,-0.07031c0.058,-0.003 -0.40212,-0.13078 -0.20312,-0.17578c-0.145,-0.149 -0.46952,-0.69013 0.27148,-0.32812c0.589,0.295 0.63842,0.09595 0.35742,-0.37305c0.05225,-0.02212 0.09483,-0.02437 0.12891,-0.01367zM1.85352,25.08398c0.01983,-0.09975 0.4277,0.55633 0.50195,0.83008c0.224,0.713 0.92509,1.1237 0.99609,1.5957c0.777,0.448 0.37825,1.17877 1.03125,1.38477c0.29,-0.147 0.31855,0.88002 0.93555,0.66602c-0.343,0.161 0.14441,0.35139 0.31641,0.65039c0.389,-0.053 1.24158,0.85697 0.39258,0.54297c-0.358,-0.076 -0.60247,-0.44841 -0.85547,-0.69141c-0.751,-0.477 -1.23839,-1.27506 -1.65039,-2.03906c-0.531,-0.803 -1.1702,-1.60592 -1.5332,-2.54492c-0.1065,-0.24375 -0.14138,-0.36128 -0.13477,-0.39453zM7.82031,25.6875c-0.03959,0.02028 -0.04166,0.13894 0.07422,0.39844l0.06836,0.11133c0.09437,-0.30687 -0.0766,-0.54356 -0.14258,-0.50977zM5.11914,26.60547c0.221,0.04812 0.5535,0.16686 0.6875,0.19336c0.037,0.159 -0.7575,0.13431 -0.0625,0.44531c-0.405,-0.011 -0.52722,-0.0415 0.05078,0.3125c-0.227,0.182 0.45766,0.32661 0.22266,0.59961c0.697,0.544 -0.12583,0.13802 -0.42383,-0.08398c-0.176,-0.122 -0.89325,-0.36444 -0.78125,-0.52344c0.846,0.444 0.2148,-0.01945 -0.1582,-0.31445c0.682,0.167 -0.54648,-0.50512 0.10352,-0.32812c0.193,0.047 -0.29225,-0.39822 0.34375,-0.07422c-0.313,-0.253 -0.20342,-0.27469 0.01758,-0.22656zM9.36133,28.31055c-0.08714,-0.03075 -0.00089,0.30652 0.19336,0.50977c0.414,0.493 0.09908,-0.27989 -0.04492,-0.33789c-0.07,-0.11025 -0.11939,-0.16163 -0.14844,-0.17187zM5.70898,28.79492c0.2305,0.0025 0.60734,0.10647 0.83984,0.23047c1.02,0.227 -0.217,0.5005 -0.625,0.1875l-0.17187,-0.03711c-0.3565,-0.283 -0.27347,-0.38336 -0.04297,-0.38086zM6.92773,28.90234c0.08483,-0.01811 0.47039,0.14047 0.63477,0.29297c0.489,0.066 0.49117,0.28939 -0.04883,0.15039c-0.096,-0.059 -0.25078,-0.05569 -0.30078,-0.17969c-0.27825,-0.17775 -0.33606,-0.25281 -0.28516,-0.26367zM7.57813,28.91016c0.15425,-0.00263 0.40683,0.0412 0.48633,0.1582c1.071,0.172 -0.06777,0.24684 -0.38477,-0.03516c-0.3115,-0.0715 -0.25581,-0.12042 -0.10156,-0.12305zM7.57813,29.51367c0.11578,-0.02559 0.87187,0.28655 0.32813,0.2168l-0.1582,-0.05078c-0.17575,-0.11025 -0.20852,-0.15748 -0.16992,-0.16602zM11.18164,29.69531c0.03375,0.01186 0.06805,0.04277 0.0918,0.10352c-0.28125,-0.0045 -0.19305,-0.13909 -0.0918,-0.10352zM7.58203,29.98828c0.2197,0.02124 1.06491,0.48298 0.31641,0.27148l-0.11523,-0.04492l-0.13086,-0.06055c-0.14825,-0.13175 -0.14355,-0.17309 -0.07031,-0.16602zM9.40039,31.20508c0.10153,-0.01617 0.93531,0.05948 0.22656,0.05273c-0.21325,-0.0325 -0.26041,-0.04734 -0.22656,-0.05273zM7.18359,31.32813c0.06003,0.01342 0.15517,0.04275 0.29492,0.09375c0.895,0.553 1.92681,0.84548 2.88281,1.27148c0.84,0.11 1.72574,0.3323 2.55273,0.1543c0.69,0.345 1.40566,-0.08934 2.09766,0.22266c-1.529,0.298 -3.102,-0.02823 -4.625,-0.24023c-0.96,-0.121 -1.81736,-0.51944 -2.69336,-0.89844c-0.127,-0.06 -0.24714,-0.13508 -0.36914,-0.20508c-0.602,-0.334 -0.52741,-0.40222 0.05859,-0.07422c0.207,0.165 1.67556,0.76614 0.97656,0.36914c-0.26425,-0.06563 -1.596,-0.78727 -1.17578,-0.69336zM12.75,31.59375c0.0685,0.044 0.07086,0.18764 0.06836,0.36914c-0.46,0.508 -0.1857,-0.20764 -0.4707,0.06836c-0.263,0.21 -0.20059,-0.12508 -0.05859,-0.20508c0.2575,-0.2205 0.39244,-0.27642 0.46094,-0.23242zM16.58398,31.75586c0.41062,0.03537 0.88034,0.13022 1.15234,0.13672c-0.165,0.347 -1.18481,0.02814 -1.63281,0.11914l-0.19336,-0.01172l-0.11914,-0.01953c0.0315,-0.236 0.38234,-0.25999 0.79297,-0.22461zM20.11523,31.86719c1.062,-0.001 0.07003,0.15434 -0.41797,0.15234c-0.554,-0.13 0.25097,-0.12634 0.41797,-0.15234zM13.71875,32.00586c0.085,-0.00962 0.11405,0.05739 -0.12695,0.21289l-0.08789,0.02734c-0.012,-0.146 0.12984,-0.23061 0.21484,-0.24023zM13.31445,32.06836c0.01563,0.02416 -0.0193,0.09333 -0.1543,0.23633c-0.393,0.0255 0.10742,-0.3088 0.1543,-0.23633zM9.48242,32.17773c0.09591,-0.02409 1.12897,0.27384 1.26172,0.24609c1.053,0.391 -0.62856,0.1272 -0.97656,-0.0918c-0.24425,-0.10325 -0.31712,-0.14626 -0.28516,-0.1543zM14.57031,32.22852c0.00228,0.02623 -0.05253,0.08772 -0.20703,0.19922l-0.12891,0.08398c-0.183,-0.12675 0.32909,-0.36191 0.33594,-0.2832z"></path></g></g></svg>