<svg xmlns="http://www.w3.org/2000/svg" xmlns:xlink="http://www.w3.org/1999/xlink" viewBox="0,0,256,256" width="96px" height="96px" fill-rule="nonzero"><g fill="#ffffff" fill-rule="nonzero" stroke="none" stroke-width="1" stroke-linecap="butt" stroke-linejoin="miter" stroke-miterlimit="10" stroke-dasharray="" stroke-dashoffset="0" font-family="none" font-weight="none" font-size="none" text-anchor="none" style="mix-blend-mode: normal"><g transform="scale(10.66667,10.66667)"><path d="M11.5,2c-3.084,0 -5.5,3.5823 -5.5,8.1543c0,2.07 0.50208,3.92761 1.33008,5.34961c-0.047,0.159 -0.08008,0.32209 -0.08008,0.49609c0,0.966 0.784,1.75 1.75,1.75c0.966,0 1.75,-0.784 1.75,-1.75c0,-0.966 -0.784,-1.75 -1.75,-1.75c-0.024,0 -0.04631,0.00681 -0.07031,0.00781c-0.57,-1.098 -0.92969,-2.53852 -0.92969,-4.10351c0,-3.336 1.603,-6.1543 3.5,-6.1543c1.286,0 2.43497,1.29692 3.04297,3.16992c0.743,0.119 1.4837,0.32217 2.2207,0.57617c-0.678,-3.361 -2.74767,-5.74609 -5.26367,-5.74609zM11.375,8.5c-0.966,0 -1.75,0.784 -1.75,1.75c0,0.966 0.784,1.75 1.75,1.75c0.687,0 1.2755,-0.39861 1.5625,-0.97461c1.293,0.058 2.73184,0.43297 4.08984,1.16797c1.96,1.062 3.43847,2.69186 3.85547,4.25586c0.215,0.803 0.13834,1.5087 -0.22266,2.0957c-0.718,1.168 -2.43362,1.63567 -4.39062,1.38867c-0.579,0.591 -1.24003,1.134 -1.95703,1.625c1,0.292 1.99083,0.44336 2.92383,0.44336c2.234,0 4.14695,-0.8152 5.12695,-2.4082c0.652,-1.06 0.80817,-2.32516 0.45117,-3.66016c-0.564,-2.107 -2.37294,-4.16405 -4.83594,-5.49805c-1.799,-0.975 -3.67123,-1.42888 -5.36523,-1.42188c-0.317,-0.318 -0.75428,-0.51367 -1.23828,-0.51367zM4.09766,11.74219c-1.46,1.209 -2.50716,2.68441 -2.91016,4.19141c-0.357,1.335 -0.20083,2.6002 0.45117,3.6582c0.978,1.593 2.89195,2.4082 5.12695,2.4082c1.692,0 3.56738,-0.46355 5.35938,-1.43555c1.71,-0.926 3.09166,-2.20261 3.97266,-3.59961c0.799,-0.162 1.40234,-0.86784 1.40234,-1.71484c0,-0.966 -0.784,-1.75 -1.75,-1.75c-0.966,0 -1.75,0.784 -1.75,1.75c0,0.326 0.09595,0.62862 0.25195,0.89063c-0.707,1.015 -1.78312,1.96502 -3.07812,2.66602c-3.119,1.689 -6.70798,1.56833 -7.83398,-0.26367c-0.361,-0.587 -0.4357,-1.29075 -0.2207,-2.09375c0.218,-0.815 0.72841,-1.64816 1.44141,-2.41016c-0.218,-0.725 -0.37289,-1.49387 -0.46289,-2.29687z"></path></g></g></svg>