<svg xmlns="http://www.w3.org/2000/svg" xmlns:xlink="http://www.w3.org/1999/xlink" viewBox="0,0,256,256" width="96px" height="96px" fill-rule="nonzero"><g fill="#ffffff" fill-rule="nonzero" stroke="none" stroke-width="1" stroke-linecap="butt" stroke-linejoin="miter" stroke-miterlimit="10" stroke-dasharray="" stroke-dashoffset="0" font-family="none" font-weight="none" font-size="none" text-anchor="none" style="mix-blend-mode: normal"><g transform="scale(10.66667,10.66667)"><path d="M20.657,13.355c-0.838,0.004 -1.564,0.206 -2.173,0.506c-0.223,-0.444 -0.448,-0.835 -0.486,-1.126c-0.044,-0.339 -0.095,-0.542 -0.042,-0.946c0.053,-0.404 0.287,-0.976 0.284,-1.019c-0.003,-0.043 -0.052,-0.249 -0.536,-0.252c-0.484,-0.003 -0.897,0.093 -0.946,0.221c-0.049,0.128 -0.142,0.415 -0.2,0.715c-0.085,0.438 -0.965,2.002 -1.465,2.82c-0.164,-0.319 -0.303,-0.601 -0.332,-0.823c-0.044,-0.339 -0.095,-0.542 -0.042,-0.946c0.053,-0.404 0.287,-0.976 0.284,-1.019c-0.003,-0.043 -0.052,-0.249 -0.536,-0.252c-0.484,-0.003 -0.897,0.093 -0.946,0.221c-0.049,0.128 -0.101,0.426 -0.2,0.715c-0.099,0.289 -1.27,2.897 -1.576,3.573c-0.156,0.344 -0.292,0.621 -0.388,0.81l-0.001,-0.001c0,0 -0.006,0.013 -0.016,0.034c-0.082,0.161 -0.131,0.25 -0.131,0.25c0,0 0.001,0.001 0.001,0.003c-0.065,0.118 -0.135,0.228 -0.17,0.228c-0.024,0 -0.073,-0.314 0.011,-0.746c0.174,-0.905 0.593,-2.316 0.588,-2.364c-0.002,-0.025 0.078,-0.271 -0.273,-0.399c-0.341,-0.125 -0.463,0.083 -0.494,0.084c-0.03,0.001 -0.053,0.074 -0.053,0.074c0,0 0.38,-1.587 -0.725,-1.587c-0.691,0 -1.648,0.756 -2.12,1.441c-0.298,0.162 -0.935,0.51 -1.61,0.881c-0.26,0.143 -0.524,0.288 -0.776,0.427c-0.017,-0.019 -0.034,-0.038 -0.052,-0.057c-1.34,-1.43 -3.818,-2.441 -3.713,-4.363c0.038,-0.699 0.281,-2.539 4.76,-4.771c3.669,-1.828 6.607,-1.325 7.114,-0.21c0.725,1.593 -1.57,4.554 -5.38,4.981c-1.452,0.163 -2.216,-0.4 -2.406,-0.609c-0.2,-0.221 -0.23,-0.231 -0.305,-0.189c-0.122,0.067 -0.045,0.262 0,0.378c0.114,0.296 0.581,0.821 1.377,1.082c0.7,0.23 2.405,0.356 4.466,-0.441c2.309,-0.893 4.112,-3.377 3.582,-5.454c-0.539,-2.112 -4.04,-2.806 -7.355,-1.629c-1.97,0.697 -4.105,1.797 -5.64,3.233c-1.825,1.707 -2.117,3.194 -1.997,3.815c0.426,2.206 3.467,3.643 4.685,4.708c-0.06,0.033 -0.116,0.064 -0.168,0.093c-0.611,0.302 -2.929,1.515 -3.509,2.797c-0.658,1.454 0.105,2.497 0.609,2.638c1.564,0.435 3.169,-0.348 4.031,-1.634c0.862,-1.286 0.757,-2.961 0.361,-3.725c-0.005,-0.009 -0.01,-0.019 -0.015,-0.028c0.158,-0.093 0.318,-0.188 0.478,-0.282c0.311,-0.182 0.616,-0.353 0.88,-0.497c-0.148,0.406 -0.257,0.892 -0.313,1.595c-0.065,0.824 0.274,1.891 0.716,2.311c0.195,0.185 0.429,0.189 0.578,0.189c0.515,0 0.75,-0.428 1.009,-0.935c0.317,-0.622 0.599,-1.345 0.599,-1.345c0,0 -0.353,1.955 0.61,1.955c0.351,0 0.704,-0.455 0.861,-0.687c0,0.003 0.001,0.004 0.001,0.004c0,0 0.009,-0.015 0.027,-0.045c0.036,-0.056 0.057,-0.091 0.057,-0.091c0,0 0.001,-0.004 0.002,-0.01c0.141,-0.245 0.454,-0.803 0.923,-1.724c0.606,-1.19 1.187,-2.68 1.187,-2.68c0,0 0.054,0.364 0.231,0.967c0.104,0.354 0.326,0.746 0.5,1.122c-0.141,0.195 -0.227,0.307 -0.227,0.307c0,0 0.001,0.002 0.002,0.006c-0.112,0.149 -0.238,0.31 -0.37,0.467c-0.478,0.57 -1.048,1.22 -1.124,1.408c-0.09,0.221 -0.069,0.384 0.105,0.515c0.127,0.096 0.353,0.11 0.589,0.095c0.43,-0.029 0.732,-0.136 0.882,-0.2c0.233,-0.082 0.504,-0.212 0.758,-0.399c0.469,-0.345 0.752,-0.839 0.725,-1.492c-0.015,-0.36 -0.13,-0.717 -0.275,-1.054c0.043,-0.061 0.085,-0.123 0.128,-0.186c0.74,-1.081 1.314,-2.27 1.314,-2.27c0,0 0.054,0.364 0.231,0.967c0.09,0.305 0.266,0.638 0.426,0.964c-0.696,0.565 -1.127,1.222 -1.277,1.653c-0.277,0.797 -0.06,1.158 0.347,1.24c0.184,0.037 0.445,-0.047 0.64,-0.13c0.244,-0.081 0.536,-0.215 0.81,-0.416c0.469,-0.345 0.92,-0.828 0.893,-1.482c-0.012,-0.298 -0.093,-0.593 -0.203,-0.877c0.59,-0.246 1.353,-0.382 2.325,-0.269c2.086,0.244 2.495,1.546 2.417,2.091c-0.078,0.545 -0.516,0.845 -0.662,0.935c-0.146,0.09 -0.191,0.122 -0.179,0.189c0.018,0.098 0.085,0.094 0.21,0.073c0.172,-0.029 1.095,-0.443 1.135,-1.45c0.05,-1.279 -1.174,-2.682 -3.342,-2.67zM4.578,18.775c-0.691,0.754 -1.656,1.039 -2.07,0.799c-0.447,-0.259 -0.27,-1.369 0.578,-2.169c0.517,-0.487 1.184,-0.936 1.627,-1.213c0.101,-0.061 0.249,-0.15 0.429,-0.257c0.03,-0.017 0.047,-0.026 0.047,-0.026l-0.001,-0.001c0.035,-0.021 0.07,-0.042 0.107,-0.064c0.308,1.138 0.008,2.14 -0.717,2.931zM9.612,15.353c-0.241,0.587 -0.744,2.088 -1.051,2.007c-0.263,-0.069 -0.423,-1.21 -0.053,-2.333c0.187,-0.565 0.585,-1.241 0.82,-1.503c0.377,-0.422 0.792,-0.56 0.893,-0.389c0.129,0.219 -0.458,1.851 -0.609,2.218zM13.77,17.338c-0.102,0.053 -0.196,0.087 -0.239,0.061c-0.032,-0.019 0.042,-0.089 0.042,-0.089c0,0 0.52,-0.56 0.725,-0.814c0.119,-0.148 0.257,-0.324 0.408,-0.521c0.001,0.02 0.002,0.039 0.002,0.058c-0.001,0.67 -0.649,1.123 -0.938,1.305zM16.974,16.607c-0.076,-0.054 -0.063,-0.229 0.187,-0.774c0.098,-0.214 0.322,-0.574 0.712,-0.919c0.045,0.142 0.073,0.277 0.072,0.404c-0.005,0.844 -0.607,1.159 -0.971,1.289z"></path></g></g></svg>