<svg xmlns="http://www.w3.org/2000/svg" xmlns:xlink="http://www.w3.org/1999/xlink" viewBox="0,0,256,256" width="96px" height="96px" fill-rule="nonzero"><g fill="#ffffff" fill-rule="nonzero" stroke="none" stroke-width="1" stroke-linecap="butt" stroke-linejoin="miter" stroke-miterlimit="10" stroke-dasharray="" stroke-dashoffset="0" font-family="none" font-weight="none" font-size="none" text-anchor="none" style="mix-blend-mode: normal"><g transform="scale(5.33333,5.33333)"><path d="M42,37c0,2.762 -2.238,5 -5,5h-26c-2.761,0 -5,-2.238 -5,-5v-26c0,-2.762 2.239,-5 5,-5h26c2.762,0 5,2.238 5,5z"></path><path fill="#151f20" d="M33.03,25.6c-0.65,-0.9 -1.59,-1.52 -2.8,-1.85c0,0 1.02,-0.37 1.94,-1.75c0.55,-0.88 0.83,-1.94 0.83,-3.18c0,-2.15 -0.78,-3.8 -2.34,-4.93c-1.56,-1.13 -3.32,-1.89 -6.31,-1.89h-9.35v24h10.43c2.83,-0.02 4.96,-0.63 6.41,-1.8c1.44,-1.19 2.16,-2.95 2.16,-5.3c0,-1.3 -0.32,-2.4 -0.97,-3.3zM21,16c0,0 4.17,0 4.25,0c1.52,0 2.75,1.23 2.75,2.75c0,1.52 -1.23,2.75 -2.75,2.75c-0.08,0 -4.25,0 -4.25,0zM26,32h-5v-6h5c1.66,0 3,1.34 3,3c0,1.66 -1.34,3 -3,3z"></path></g></g></svg>