<svg xmlns="http://www.w3.org/2000/svg" xmlns:xlink="http://www.w3.org/1999/xlink" viewBox="0,0,256,256" width="100px" height="100px" fill-rule="nonzero"><g fill="#ffffff" fill-rule="nonzero" stroke="none" stroke-width="1" stroke-linecap="butt" stroke-linejoin="miter" stroke-miterlimit="10" stroke-dasharray="" stroke-dashoffset="0" font-family="none" font-weight="none" font-size="none" text-anchor="none" style="mix-blend-mode: normal"><g transform="scale(5.12,5.12)"><path d="M38.01172,4c-0.4375,-0.00391 -0.82812,0.27344 -0.96484,0.69141l-4.97266,15.30859h-14.14844l-4.97266,-15.30859c-0.13281,-0.40234 -0.50391,-0.67969 -0.92969,-0.69141c-0.42578,-0.00781 -0.80859,0.25 -0.96094,0.64844l-5.99219,15.99219c-0.00391,0 -0.00391,0.00391 -0.00781,0.00781l-3,8c-0.15625,0.42188 -0.01562,0.89453 0.35156,1.16016l21.99219,15.99219l0.00391,0.00781c0.00391,0 0.00391,0 0.00391,0.00391c0.01172,0.00781 0.02734,0.01563 0.03906,0.02344c0.01563,0.00781 0.02734,0.01953 0.04297,0.02734c0.00391,0 0.00391,0.00391 0.00781,0.00391c0,0 0.00391,0.00391 0.00781,0.00391c0.00391,0.00391 0.00781,0.00781 0.01563,0.00781c0.00391,0.00391 0.01172,0.00781 0.01563,0.01172c0.01953,0.00781 0.04297,0.01953 0.06641,0.02734c0,0 0,0 0,0.00391c0.02344,0.00781 0.04688,0.01563 0.06641,0.02344c0.00391,0 0.00391,0 0.00781,0.00391c0.01563,0.00391 0.03125,0.00781 0.05078,0.01563c0.00781,0 0.01563,0.00391 0.02734,0.00391c0,0.00391 0,0.00391 0,0c0.01953,0.00781 0.03906,0.01172 0.05859,0.01563c0.02734,0.00391 0.05078,0.00781 0.07813,0.01172c0.03906,0 0.08203,0.00391 0.12109,0.00391c0.03906,-0.00391 0.07422,-0.00391 0.10938,-0.01172c0.01563,0 0.02734,0 0.04297,-0.00391c0,0 0.00391,0 0.00781,0c0.00781,-0.00391 0.01172,-0.00391 0.01953,-0.00391c0.00391,0 0.00781,-0.00391 0.01563,-0.00391c0.00781,-0.00391 0.01953,-0.00391 0.02734,-0.00781c0.01563,-0.00391 0.02734,-0.00781 0.03906,-0.01172c0.00781,0 0.01172,0 0.01563,-0.00391c0.00391,0 0.00781,0 0.01172,0c0.01563,-0.00781 0.03516,-0.01562 0.05078,-0.01953c0.01953,-0.00781 0.03516,-0.01562 0.05078,-0.02344c0.00391,0 0.00391,0 0.00781,-0.00391c0.00391,0 0.00781,0 0.01172,-0.00391c0.00781,-0.00391 0.01563,-0.00781 0.02344,-0.01172c0.02344,-0.01172 0.04297,-0.02344 0.0625,-0.03516c0.00781,-0.00391 0.01172,-0.00781 0.01563,-0.01172c0.00391,0 0.00781,-0.00391 0.01172,-0.00391c0.01563,-0.01172 0.03125,-0.01953 0.04688,-0.03125l0.00781,-0.01172l21.99219,-15.98828c0.36328,-0.26562 0.50391,-0.73828 0.34766,-1.16016l-2.99219,-7.97266c-0.00391,-0.00781 -0.00781,-0.01953 -0.00781,-0.02734l-6,-16c-0.14844,-0.38672 -0.51172,-0.64453 -0.92578,-0.64844zM8.06641,22h8.40625l5.85547,18.01563zM33.52734,22h8.40625l-14.26172,18.01563zM6.3125,23.00781l13.375,16.89453l-15.48437,-11.26172zM43.6875,23.00781l2.10938,5.63281l-15.48437,11.26172z"></path></g></g></svg>