<svg xmlns="http://www.w3.org/2000/svg"  viewBox="0,0,256,256" width="96px" height="96px" fill-rule="nonzero"><g fill="none" fill-rule="nonzero" stroke="none" stroke-width="1" stroke-linecap="butt" stroke-linejoin="miter" stroke-miterlimit="10" stroke-dasharray="" stroke-dashoffset="0" font-family="none" font-weight="none" font-size="none" text-anchor="none" style="mix-blend-mode: normal"><g transform="scale(5.33333,5.33333)"><path d="M1,5l6,4v20l-6,-4z" fill="#ffffff"></path><path d="M47,20l-6,4v13l6,-4z" fill="#f4fbff"></path><path d="M47,6l-6,4v7l6,-4z" fill="#f4fbff"></path><path d="M35,5l-6,4v20l6,-4z" fill="#f4fbff"></path><path d="M1,12l17,11v-7l-17,-11z" fill="#ffffff"></path><path d="M35,12l-17,11v-7l17,-11z" fill="#f4fbff"></path><path d="M35,26l-17,11v-7l17,-11z" fill="#f4fbff"></path><path d="M47,34l-17,11v-7l17,-11z" fill="#f4fbff"></path><path d="M30,37.765l-12,-7.765v7l12,7.765z" fill="#ffffff"></path></g></g></svg>