<svg xmlns="http://www.w3.org/2000/svg" xmlns:xlink="http://www.w3.org/1999/xlink" viewBox="0,0,256,256" width="48px" height="48px" fill-rule="nonzero"><g fill="#61dbfb" fill-rule="nonzero" stroke="none" stroke-width="1" stroke-linecap="butt" stroke-linejoin="miter" stroke-miterlimit="10" stroke-dasharray="" stroke-dashoffset="0" font-family="none" font-weight="none" font-size="none" text-anchor="none" style="mix-blend-mode: normal"><g transform="scale(5.33333,5.33333)"><path d="M24,34c-12.9,0 -23,-4.4 -23,-10c0,-5.6 10.1,-10 23,-10c12.9,0 23,4.4 23,10c0,5.6 -10.1,10 -23,10zM24,16c-12.6,0 -21,4.1 -21,8c0,3.9 8.4,8 21,8c12.6,0 21,-4.1 21,-8c0,-3.9 -8.4,-8 -21,-8z"></path><path d="M15.1,44.6c-1,0 -1.8,-0.2 -2.6,-0.7c-4.9,-2.8 -3.6,-13.7 2.8,-24.9v0c3,-5.2 6.7,-9.6 10.3,-12.4c3.9,-3 7.4,-3.9 9.8,-2.5c2.5,1.4 3.4,4.9 2.8,9.8c-0.6,4.6 -2.6,10 -5.6,15.2c-3,5.2 -6.7,9.6 -10.3,12.4c-2.6,2 -5.1,3.1 -7.2,3.1zM32.9,5.4c-1.6,0 -3.7,0.9 -6,2.7c-3.4,2.7 -6.9,6.9 -9.8,11.9v0c-6.3,10.9 -6.9,20.3 -3.6,22.2c1.7,1 4.5,0.1 7.6,-2.3c3.4,-2.7 6.9,-6.9 9.8,-11.9c2.9,-5 4.8,-10.1 5.4,-14.4c0.5,-4 -0.1,-6.8 -1.8,-7.8c-0.5,-0.2 -1,-0.4 -1.6,-0.4z"></path><path d="M33,44.6c-5,0 -12.2,-6.1 -17.6,-15.6c-6.5,-11.2 -7.8,-22.1 -2.9,-24.9v0c4.9,-2.8 13.7,3.7 20.2,14.9c3,5.2 5,10.6 5.6,15.2c0.7,4.9 -0.3,8.3 -2.8,9.8c-0.8,0.4 -1.6,0.6 -2.5,0.6zM13.5,5.8c-3.3,1.9 -2.7,11.3 3.6,22.2c6.3,10.9 14.1,16.1 17.4,14.2c1.7,-1 2.3,-3.8 1.8,-7.8c-0.6,-4.3 -2.5,-9.4 -5.4,-14.4c-6.3,-10.9 -14.1,-16.1 -17.4,-14.2z"></path><circle cx="24" cy="24" r="4"></circle></g></g></svg>