<svg height="140" preserveAspectRatio="xMidYMid" viewBox="0 0 256 140" width="256" xmlns="http://www.w3.org/2000/svg"><path d="m78.0659341 92.5875806c12.8178615 0 23.2087919-10.3909298 23.2087919-23.2087912 0-12.8178615-10.3909304-23.2087912-23.2087919-23.2087912s-23.2087912 10.3909297-23.2087912 23.2087912c0 12.8178614 10.3909297 23.2087912 23.2087912 23.2087912zm-54.8571428 46.4175824c12.8178613 0 23.2087912-10.39093 23.2087912-23.208791 0-12.817862-10.3909299-23.2087914-23.2087912-23.2087914-12.8178615 0-23.2087913 10.3909294-23.2087913 23.2087914 0 12.817861 10.3909298 23.208791 23.2087913 23.208791zm209.5824177 0c12.817861 0 23.208791-10.39093 23.208791-23.208791 0-12.817862-10.39093-23.2087914-23.208791-23.2087914-12.817862 0-23.208791 10.3909294-23.208791 23.2087914 0 12.817861 10.390929 23.208791 23.208791 23.208791z"/><path d="m156.565464 70.3568084c-.742038-7.7539921-1.119887-14.2077829-7.05997-18.7436408-7.522856-5.7444674-16.044328-2.0171433-26.541031-5.8058708-10.314137-2.4951541-17.964463-11.6527241-17.964463-22.5678601 0-12.8347865 10.577888-23.2394367 23.626373-23.2394367 9.664257 0 17.973265 5.70747659 21.6332 13.8825477 5.60144 10.6395781 1.960916 21.4674941 8.998669 26.9215796 8.333247 6.4580622 19.567925 1.7287881 32.103867 7.8476139 4.028003 1.8509532 7.437475 4.7867166 9.839947 8.4251812 2.402472 3.6384645 3.797944 7.97963 3.797944 12.6413877 0 10.9151359-7.650326 20.072706-17.964462 22.5678601-10.496704 3.7887275-19.018175.0614034-26.541032 5.8058708-8.459476 6.459671-3.930614 17.266601-10.825154 28.682406-3.913189 7.51712-11.867233 12.662173-21.042979 12.662173-13.048485 0-23.626373-10.40465-23.626373-23.239436 0-9.323516 5.581887-17.364663 13.637891-21.0665694 12.535942-6.1188257 23.77062-1.3895517 32.103867-7.8476139 4.807348-3.7255764 5.823706-9.4727359 5.823706-16.9261923z" fill="#d0021b"/></svg>