<!DOCTYPE svg PUBLIC "-//W3C//DTD SVG 1.1//EN" "http://www.w3.org/Graphics/SVG/1.1/DTD/svg11.dtd">

<!-- Uploaded to: SVG Repo, www.svgrepo.com, Transformed by: SVG Repo Mixer Tools -->
<svg width="64px" height="64px" viewBox="0 0 24 24" fill="none" xmlns="http://www.w3.org/2000/svg">

<g id="SVGRepo_bgCarrier" stroke-width="0"/>

<g id="SVGRepo_tracerCarrier" stroke-linecap="round" stroke-linejoin="round"/>

<g id="SVGRepo_iconCarrier"> <path d="M3 10C3 8.89543 3.89543 8 5 8H19C20.1046 8 21 8.89543 21 10V12C21 12.5523 20.5523 13 20 13H4C3.44772 13 3 12.5523 3 12V10Z" stroke="#000000" stroke-width="2" stroke-linecap="round" stroke-linejoin="round"/> <path d="M9 6C9 4.89543 9.89543 4 11 4H13C14.1046 4 15 4.89543 15 6V8H9V6Z" stroke="#000000" stroke-width="2" stroke-linecap="round" stroke-linejoin="round"/> <path d="M4 13H20V18C20 19.1046 19.1046 20 18 20H6C4.89543 20 4 19.1046 4 18V13Z" stroke="#000000" stroke-width="2" stroke-linecap="round" stroke-linejoin="round"/> <path d="M12 12V14" stroke="#000000" stroke-width="2" stroke-linecap="round" stroke-linejoin="round"/> </g>

</svg>